<?xml version="1.0" encoding="utf-8"?>
<!-- Generator: Adobe Illustrator 17.0.0, SVG Export Plug-In . SVG Version: 6.00 Build 0)  -->
<!DOCTYPE svg PUBLIC "-//W3C//DTD SVG 1.1//EN" "http://www.w3.org/Graphics/SVG/1.1/DTD/svg11.dtd">
<svg version="1.1" id="Слой_1" xmlns="http://www.w3.org/2000/svg" xmlns:xlink="http://www.w3.org/1999/xlink" x="0px" y="0px"
	 width="250px" height="180px" viewBox="0 0 250 180" enable-background="new 0 0 250 180" xml:space="preserve">
<g id="g13237" transform="translate(-2.7257 -5.6087)">
	<path id="_x32_1399192" fill="#106233" d="M263.033,185.606V5.394L-7.279,5.396v180.212h270.312V185.606z"/>
	<g id="g13004" transform="matrix(1.1437 0 0 1.1446 -.39167 -145.67)">
		<g id="g9244" transform="matrix(1.7598 0 0 1.6 -2175.2 -3398.1)">
			<path id="path3159" fill="#FFFFFF" d="M1288.594,2257.267c-1.749,2.626-0.486,4.334,1.317,4.456
				c1.188,0.088,3.659-1.681,3.652-3.76l-0.675-0.378c0.378,1.067-0.014,1.404-0.817,2.133
				C1290.484,2261.156,1287.244,2261.257,1288.594,2257.267z"/>
			<path id="path3115" fill="#FFFFFF" d="M1302.454,2264.153c9.843,0.277,12.975-9.249,6.9-17.404l-0.601,0.898
				c0.391,3.801,0.959,7.548,1.013,11.443c-1.188,1.397-2.916,0.878-3.261-0.675c0.02-2.106-0.668-3.889-1.539-5.59l-0.486,0.898
				c0.567,1.397,1.181,2.97,1.31,4.692c-2.808,3.369-5.914,4.051-4.76-0.378c-2.221,3.882,1.141,6.616,4.948,0.641
				c0.817,4.078,3.976,1.546,4.165,0.668c0.344-2.673,0.169-6.981-0.526-10.383c2.741,4.746,2.835,8.169,1.377,10.457
				C1309.374,2261.966,1305.85,2263.154,1302.454,2264.153L1302.454,2264.153z"/>
			<path id="path3117" fill="#FFFFFF" d="M1308.037,2253.385c-2.106,0.155-3.186-0.277-2.046-1.836
				c1.127-1.526,2.181-0.311,2.464,1.728c0.263,1.91-3.7,4.348-5.07,4.348c-2.073,0-3.031-2.667-1.121-5.063
				C1299.807,2259.556,1307.571,2255.498,1308.037,2253.385z M1306.579,2251.765c-0.257-0.013-0.446,0.439-0.317,0.527
				c0.371,0.257,0.959,0.101,1.019-0.027C1307.409,2251.981,1306.937,2251.779,1306.579,2251.765L1306.579,2251.765z"/>
			<path id="path3140" fill="#FFFFFF" d="M1296.601,2256.687c-2.025,3.983-0.007,5.63,2.592,5.171
				c1.512-0.277,3.43-1.35,4.537-2.815c0.02-3.227-0.027-6.427-0.311-9.553c1.013-1.208-0.088-1.202-0.473-2.498
				c-0.176,0.756-0.601,1.573-0.189,2.16c0.29,3.153,0.452,6.346,0.446,9.6c-2.039,1.64-3.571,2.248-4.665,2.235
				C1296.277,2260.967,1295.791,2259.063,1296.601,2256.687L1296.601,2256.687z"/>
			<path id="path3150" fill="#FFFFFF" d="M1300.739,2257.74c-0.034-3.004-0.081-6.414-0.351-8.513
				c1.053-1.168-0.054-1.195-0.398-2.505c-0.203,0.743-0.648,1.553-0.256,2.154c0.176,3.214,0.344,6.427,0.378,9.641
				C1300.354,2258.361,1300.631,2258.3,1300.739,2257.74L1300.739,2257.74z"/>
			<path id="path3152" fill="#FFFFFF" d="M1292.881,2257.598c-0.257-0.324-0.439-0.688-0.648-1.006
				c-0.034-0.452,0.27-0.871,0.311-1.1c0.344,0.533,0.547,0.938,0.824,1.202 M1293.732,2256.903
				c0.506,0.202,1.127,0.202,1.701,0.216c2.214,0.041,4.543-0.324,4.294,2.673c-0.216,2.66-2.424,4.199-4.402,4.179
				c-2.815-0.027-5.219-3.133-0.878-8.851c0.419-0.068,0.965,0.047,1.418,0.088c0.776,0.061,1.573-0.013,2.484-0.743
				c-0.108-1.884-0.108-3.666-0.338-5.367c-0.392-0.601,0.054-1.404,0.257-2.154c0.344,1.31,1.445,1.337,0.398,2.511
				c0.25,1.89,0.277,3.814,0.277,4.962c-0.527,0.803-0.938,1.654-2.478,1.978c-1.573-0.229-2.282-2.43-3.922-1.701
				c0.452-1.985,4.618-2.437,5.036-0.871c-0.277,1.634-4.165,0.979-5.198,6.258c-0.317,1.627,1.397,3.126,3.16,3.004
				c1.721-0.115,3.558-1.31,3.74-3.322c0.142-1.681-2.228-1.485-3.22-1.465c-1.445,0.034-2.356-0.189-2.903-0.506
				 M1294.636,2254.155c0.257-0.243,1.154-0.412,1.479-0.02c-0.243,0.162-0.479,0.337-0.675,0.547
				C1295.102,2254.506,1294.879,2254.33,1294.636,2254.155z"/>
			<path id="path3161" fill="#FFFFFF" d="M1296.837,2248.572c0.243,0.54,0.344,0.898,0.358,1.418
				c-0.148,0.702-0.749,1.357-1.37,1.377c-0.385,0.013-0.817-0.094-1.121-0.695c-0.034-0.074-0.196-0.25-0.351-0.169
				c-0.682,1.121-1.188,1.593-1.802,1.587c-1.229-0.02-0.864-1.114-1.998-1.452c-0.473-0.013-1.249,0.466-1.647,1.404
				c-1.512,4.287-2.889-0.013-2.302-2.012c0.088,1.91,0.547,3.045,1.019,3.011c0.344-0.034,0.648-0.831,1.087-1.667
				c0.338-0.641,1.148-1.796,2.005-1.796c0.783,0.02,0.29,1.458,1.857,1.438c0.756-0.013,1.451-0.594,2.154-1.755
				c0.155-0.027,0.196,0.25,0.229,0.344c0.108,0.398,0.797,1.492,1.728,0.493c-0.047-0.216-0.027-0.574-0.263-0.648
				L1296.837,2248.572z"/>
			<path id="path3163" fill="#FFFFFF" d="M1301.759,2245.021c-0.83,0.412-1.438,0.034-1.782-0.331
				c0.601-0.122,1.067-0.338,1.202-0.81c-0.27-0.608-0.911-0.871-1.816-0.878c-1.208,0.034-1.829,0.52-1.904,1.188
				c0.56,0.02,1.067-0.135,1.283,0.405c-0.992,0.486-2.16,0.662-3.43,0.655c-2.079,0.108-2.383-0.83-2.93-1.654
				c-0.041-0.054-0.223-0.142-0.317-0.128c-0.641,0-1.114,2.241-1.836,2.235c-0.722-0.094-0.56-1.445-0.77-2.214
				c-0.176,1.208,0.223,5.705,2.457,0.823c0.068-0.162,0.162-0.115,0.223,0.02c0.601,1.364,1.823,1.836,3.139,1.904
				c1.1,0.061,2.505-0.418,4.01-1.269c0.398,0.439,0.716,0.938,1.553,1.033c0.979,0.047,2.025-0.661,2.262-1.539
				c0.121-0.452,0.142-1.344-0.338-1.357c-0.668-0.02-1.154,1.6-0.999,3.058c0.013-0.02,0.088-0.365,0.088-0.365 M1298.896,2243.853
				c0.439-0.203,0.864-0.297,1.202,0.148c-0.263,0.094-0.425,0.155-0.567,0.27
				C1299.342,2244.123,1299.085,2244.049,1298.896,2243.853z M1302.123,2244.859c0.108-0.479,0.169-0.864,0.56-1.114
				C1302.765,2244.251,1302.778,2244.535,1302.123,2244.859z"/>
			<path id="path3169" fill="#FFFFFF" d="M1304.756,2245.601c-0.128-0.412-0.256-0.77-0.297-1.215
				c-0.094-0.905,0.682-1.418,1.384-1.343c0.722,0.074,1.202,0.344,1.89,0.581c0.54,0.182,1.269,0.324,1.964,0.52
				c0.392,0.176,0,0.635-0.101,0.695c-1.742,0.682-2.977,1.762-4.084,1.809c-0.661,0.034-1.249-0.398-1.782-1.283
				c-0.034-1.715-0.094-3.727-0.263-4.989c0.257-0.257,0.311-0.446,0.432-0.655c0.135,1.667,0.189,3.423,0.223,5.191
				C1304.263,2245.217,1304.439,2245.473,1304.756,2245.601L1304.756,2245.601z M1305.87,2245.736
				c-0.932,0.263-0.817-0.527-0.905-1.013c-0.101-0.567-0.034-1.208,0.689-1.046c0.938,0.25,1.796,0.581,2.626,0.932
				L1305.87,2245.736z"/>
			<path id="path3173" fill="#FFFFFF" d="M1304.959,2246.573l0.128,0.628h0.101l-0.041-0.587"/>
			<path id="path5196" fill="#FFFFFF" d="M1290.099,2253.135l0.473-0.486l0.547,0.466l-0.506,0.452L1290.099,2253.135z"/>
			<path id="path6168" fill="#FFFFFF" d="M1291.301,2252.973l0.479-0.486l0.547,0.466l-0.506,0.452L1291.301,2252.973z"/>
			<path id="path6170" fill="#FFFFFF" d="M1287.959,2247.937l0.479-0.486l0.547,0.466l-0.506,0.452L1287.959,2247.937z"/>
			<path id="path6172" fill="#FFFFFF" d="M1288.175,2249.368l0.479-0.486l0.54,0.466l-0.506,0.452L1288.175,2249.368z"/>
			<path id="path6174" fill="#FFFFFF" d="M1296.851,2251.765l0.439-0.358l0.405,0.439l-0.459,0.324L1296.851,2251.765z"/>
			<path id="path6176" fill="#FFFFFF" d="M1291.058,2242.604l0.311-0.317l0.358,0.304l-0.331,0.297L1291.058,2242.604z"/>
			<path id="path6178" fill="#FFFFFF" d="M1291.848,2242.503l0.311-0.324l0.358,0.311l-0.331,0.29L1291.848,2242.503z"/>
			<path id="path6180" fill="#FFFFFF" d="M1308.429,2246.128l-0.297,0.25l-0.284-0.29l0.311-0.229L1308.429,2246.128z"/>
			<path id="path9240" fill="#FFFFFF" d="M1294.454,2255.086l-0.034,0.533l0.851,0.081l0.682-0.513L1294.454,2255.086
				L1294.454,2255.086z"/>
			<path id="path9242" fill="#FFFFFF" d="M1301.644,2245.122l0.25-0.054l-0.027,0.696l-0.155,0.061L1301.644,2245.122
				L1301.644,2245.122z"/>
		</g>
		<path id="path2722" fill="#FFFFFF" d="M112.154,238.883c16.865,0,30.588-12.476,30.588-27.808c0-8.436-4.14-15.964-10.656-21.052
			c3.91,4.182,6.286,9.688,6.286,15.683c0,13.315-11.729,24.117-26.218,24.117c-14.489,0-26.218-10.802-26.218-24.117
			c0-5.994,2.376-11.5,6.286-15.683c-6.516,5.088-10.656,12.616-10.656,21.052C81.565,226.407,95.288,238.883,112.154,238.883
			L112.154,238.883z"/>
		<g id="g2908" transform="matrix(1.1355 0 0 1.0324 2.7256 -21.429)">
			<path id="path2910" fill="#FFFFFF" stroke="#000000" d="M92.724,267.127c-5.941,2.97-13.367,2.16-19.646-1.89
				c-0.27-0.135-0.405,0.068-0.135,0.81c0.675,1.958,1.215,3.511-0.81,6.413c-0.878,1.283,0.135,1.485,1.62,1.35
				c7.561-0.743,14.987-2.43,18.565-3.848L92.724,267.127z"/>
			<path id="path2912" fill="#FFFFFF" stroke="#000000" d="M92.589,270.638c-2.363,0.945-6.413,2.093-10.937,2.903
				c-1.823,0.27-1.755,1.418,1.485,1.823c3.308,0.338,7.561-2.025,10.127-4.118L92.589,270.638z"/>
			<path id="path2914" fill="#FFFFFF" stroke="#000000" d="M96.37,264.157c0.81,0,2.295-0.338,3.781-0.54
				c2.768-0.473,0.743,3.781-3.781,3.781v1.418c4.591,0,9.384-4.996,8.371-7.224c-1.418-3.241-5.333-0.473-8.371-0.473
				c-3.038,0-6.954-2.768-8.371,0.473c-1.013,2.228,3.781,7.224,8.371,7.224v-1.418c-4.523,0-6.549-4.253-3.781-3.781
				C94.075,263.819,95.56,264.157,96.37,264.157z"/>
			<path id="path2916" fill="#FFFFFF" stroke="#000000" d="M100.015,267.127c5.941,2.97,13.367,2.16,19.646-1.89
				c0.27-0.135,0.405,0.068,0.135,0.81c-0.675,1.958-1.215,3.511,0.81,6.413c0.878,1.283-0.135,1.485-1.62,1.35
				c-7.561-0.743-14.987-2.43-18.565-3.848L100.015,267.127z"/>
			<path id="path2918" fill="#FFFFFF" stroke="#000000" d="M100.15,270.638c2.363,0.945,6.346,2.093,10.937,2.903
				c1.823,0.27,1.755,1.418-1.485,1.823c-3.308,0.338-7.561-2.025-10.127-4.118L100.15,270.638z"/>
			<path id="path2920" fill="#FFFFFF" stroke="#000000" d="M96.572,269.963c0.135,1.148,0.338,3.646,1.89,2.565
				c2.093-1.418,2.565-2.498,2.565-4.523c0-1.283-1.553-3.173-4.658-3.173c-3.105,0-4.658,1.89-4.658,3.173
				c0,2.025,0.473,3.105,2.565,4.523c1.553,1.08,1.688-1.418,1.89-2.565C96.235,269.558,96.572,269.693,96.572,269.963z"/>
		</g>
		<g id="g2724" transform="matrix(1.1355 0 0 1.0324 2.7256 -21.429)">
			<path id="path2726" fill="#FFFFFF" stroke="#000000" d="M94.412,183.482c-0.878-4.996-8.236-5.333-9.384-6.143
				c-1.35-0.878-1.148,0-0.675,1.35c1.35,3.511,5.941,4.928,8.034,5.333C94.075,184.292,94.615,184.427,94.412,183.482z"/>
			<path id="path2728" fill="#FFFFFF" stroke="#000000" d="M96.64,183.617c0.743-5.131-6.549-7.561-7.426-8.709
				c-1.013-1.215-1.148-0.473-0.675,0.945c0.878,3.038,4.051,6.616,5.941,7.561C96.032,184.225,96.505,184.562,96.64,183.617z"/>
			<path id="path2730" fill="#FFFFFF" stroke="#000000" d="M102.648,186.587c0.675-6.143-5.266-7.089-6.819-9.046
				c-1.013-1.215-1.08-0.54-0.743,0.878c0.675,3.105,3.646,6.751,5.468,7.899C101.973,187.195,102.581,187.533,102.648,186.587z"/>
			<path id="path2732" fill="#FFFFFF" stroke="#000000" d="M100.826,185.237c-6.143-3.983-10.464-1.755-12.219-1.958
				c-1.688-0.203-2.228,0.878,0.675,2.498c3.578,1.958,8.574,1.688,10.532,0.945C101.838,185.912,101.231,185.507,100.826,185.237z"
				/>
			<path id="path2734" fill="#FFFFFF" stroke="#000000" d="M110.074,187.938c-1.89-6.616-6.278-5.536-7.561-6.346
				c-1.283-0.81-1.418-0.608-1.148,0.878c0.54,2.633,5.063,5.536,7.291,6.413C109.467,189.153,110.48,189.558,110.074,187.938z"/>
			<path id="path2736" fill="#FFFFFF" stroke="#000000" d="M109.197,189.085c-5.266-4.253-9.384-1.08-11.004-1.553
				c-1.215-0.338-0.675,0.473-0.203,0.81c3.376,2.363,7.561,3.646,10.802,2.16C110.074,189.963,110.142,189.828,109.197,189.085z"/>
			<path id="path2738" fill="#FFFFFF" stroke="#000000" d="M120.606,193.406c0.068-4.186-8.574-5.941-10.397-8.506
				c-1.08-1.553-2.025-0.743-1.485,1.755c0.81,3.241,6.751,6.819,9.992,7.494C120.674,194.554,120.606,193.879,120.606,193.406z"/>
			<path id="path2740" fill="#FFFFFF" stroke="#000000" d="M120.336,194.149c-5.468-4.928-10.059-3.308-11.747-3.781
				c-1.688-0.405-2.363,0.608,0.27,2.633c3.241,2.43,8.236,2.903,10.329,2.43C121.281,194.959,120.741,194.486,120.336,194.149z"/>
			<path id="path2742" fill="#FFFFFF" stroke="#000000" d="M130.125,201.372c-1.553-7.156-6.481-8.641-7.696-9.992
				c-1.148-1.35-2.363-0.945-1.35,2.295c1.215,3.848,5.198,7.224,7.291,8.034C130.395,202.587,130.26,201.912,130.125,201.372z"/>
			<path id="path2744" fill="#FFFFFF" stroke="#000000" d="M130.058,202.317c-3.983-6.413-9.181-6.211-10.802-7.089
				c-1.553-0.945-2.633-0.135-0.54,2.633c2.43,3.376,7.426,5.266,9.722,5.401C130.733,203.397,130.328,202.79,130.058,202.317z"/>
			<path id="path2746" fill="#FFFFFF" stroke="#000000" d="M135.188,209.946c2.295-7.291-2.97-9.992-3.511-11.207
				c-0.608-1.215-1.215-1.215-1.553,0.068c-1.485,5.198,3.308,10.262,4.051,11.274C134.918,211.026,135.053,210.554,135.188,209.946
				z"/>
			<path id="path2748" fill="#FFFFFF" stroke="#000000" d="M134.108,211.971c-1.823-8.169-6.616-7.696-7.696-8.844
				c-1.148-1.148-1.283-0.338-1.08,1.148c0.54,3.983,5.333,6.684,7.494,8.034C133.501,212.714,134.311,213.187,134.108,211.971z"/>
			<path id="path2750" fill="#FFFFFF" stroke="#000000" d="M138.699,221.558c3.308-7.696-0.608-12.895-1.823-14.042
				c-1.215-1.08-1.958-1.553-1.553,0c0.54,2.363-1.35,8.439,1.553,12.895C137.821,221.895,137.956,223.313,138.699,221.558z"/>
			<path id="path2752" fill="#FFFFFF" stroke="#000000" d="M136.944,223.111c0.743-4.726-1.958-9.046-4.861-10.734
				c-1.688-1.013-1.755-0.743-1.755,0.675c0.135,4.388,4.253,8.034,5.468,10.059C136.944,225.001,136.876,223.583,136.944,223.111z"
				/>
			<path id="path2754" fill="#FFFFFF" stroke="#000000" d="M136.201,235.397c-2.43-8.911,2.633-14.042,4.186-15.055
				c1.485-1.08,2.43-1.485,1.755,0.203c-1.013,2.498,0.068,9.451-3.781,13.84C137.146,235.87,136.674,237.423,136.201,235.397z"/>
			<path id="path2756" fill="#FFFFFF" stroke="#000000" d="M136.741,233.44c2.025-7.764-2.363-12.152-3.713-13.03
				c-1.283-0.878-2.093-1.215-1.485,0.203c0.81,2.16-0.068,8.236,3.308,12.017C135.931,233.912,136.336,235.195,136.741,233.44z"/>
			<path id="path2758" fill="#FFFFFF" stroke="#000000" d="M134.243,229.794c-3.646,3.916-3.713,9.654-2.093,13.03
				c1.013,1.958,1.148,1.823,2.093,0.405c2.565-4.118,1.013-10.059,1.148-12.692C135.458,228.039,134.648,229.389,134.243,229.794z"
				/>
			<path id="path2760" fill="#FFFFFF" stroke="#000000" d="M140.252,236.005c0,5.401-3.308,9.789-6.819,11.139
				c-2.025,0.743-2.025,0.54-1.755-1.08c0.945-6.076,5.603-8.304,7.291-10.262C140.589,233.912,140.252,235.465,140.252,236.005z"/>
			<path id="path2762" fill="#FFFFFF" stroke="#000000" d="M127.695,252.073c5.941-5.401,2.768-9.181,3.038-12.692
				c0.135-1.89-0.608-1.418-1.283-0.743c-3.781,3.713-3.983,10.329-3.173,12.894C126.615,252.68,127.155,252.545,127.695,252.073z"
				/>
			<path id="path2764" fill="#FFFFFF" stroke="#000000" d="M135.661,248.562c-1.958,5.941-7.156,9.587-11.544,9.789
				c-2.565,0.135-2.498-0.068-1.62-1.823c3.308-6.346,9.181-7.089,11.814-8.709C136.741,246.334,135.863,247.954,135.661,248.562z"
				/>
			<path id="path2766" fill="#FFFFFF" stroke="#000000" d="M119.526,259.701c7.696-3.848,6.143-10.262,7.561-11.882
				c1.013-1.148-0.203-1.013-0.81-0.608c-4.523,2.633-8.169,6.819-8.236,11.274C118.041,260.174,118.176,260.376,119.526,259.701z"
				/>
			<path id="path2768" fill="#FFFFFF" stroke="#000000" d="M108.994,266.857c9.721,1.553,14.245-5.806,17.08-6.481
				c1.485-0.338,0.405-0.945-0.338-1.013c-6.481-0.743-14.717,2.295-17.215,5.671C107.509,266.385,107.509,266.655,108.994,266.857z
				"/>
			<path id="path2770" fill="#FFFFFF" stroke="#000000" d="M118.851,255.313c-1.958,6.413-9.249,11.679-14.717,12.084
				c-2.565,0.203-2.565-0.068-1.62-1.755c4.388-7.966,12.017-9.316,14.717-11.342C119.526,252.545,119.053,254.705,118.851,255.313z
				"/>
			<path id="path2772" fill="#FFFFFF" stroke="#000000" d="M98.328,183.482c0.878-4.996,8.236-5.333,9.384-6.143
				c1.35-0.878,1.148,0,0.675,1.35c-1.35,3.511-5.941,4.928-8.034,5.333C98.665,184.292,98.125,184.427,98.328,183.482z"/>
			<path id="path2774" fill="#FFFFFF" stroke="#000000" d="M96.1,183.617c-0.743-5.131,6.549-7.561,7.426-8.709
				c1.013-1.215,1.148-0.473,0.675,0.945c-0.878,3.038-4.051,6.616-5.941,7.561C96.707,184.225,96.235,184.562,96.1,183.617z"/>
			<path id="path2776" fill="#FFFFFF" stroke="#000000" d="M90.091,186.587c-0.675-6.143,5.266-7.089,6.819-9.046
				c1.013-1.215,1.08-0.54,0.743,0.878c-0.675,3.105-3.646,6.751-5.468,7.899C90.767,187.195,90.159,187.533,90.091,186.587z"/>
			<path id="path2778" fill="#FFFFFF" stroke="#000000" d="M91.914,185.237c6.143-3.983,10.464-1.755,12.219-1.958
				c1.688-0.203,2.228,0.878-0.675,2.498c-3.578,1.958-8.574,1.688-10.532,0.945C90.902,185.912,91.509,185.507,91.914,185.237z"/>
			<path id="path2780" fill="#FFFFFF" stroke="#000000" d="M82.665,187.938c1.89-6.616,6.278-5.536,7.561-6.346
				s1.418-0.608,1.148,0.878c-0.54,2.633-5.063,5.536-7.291,6.413C83.273,189.153,82.26,189.558,82.665,187.938z"/>
			<path id="path2782" fill="#FFFFFF" stroke="#000000" d="M83.543,189.085c5.266-4.253,9.384-1.08,11.004-1.553
				c1.215-0.338,0.675,0.473,0.203,0.81c-3.376,2.363-7.561,3.646-10.802,2.16C82.665,189.963,82.598,189.828,83.543,189.085z"/>
			<path id="path2784" fill="#FFFFFF" stroke="#000000" d="M72.134,193.406c-0.068-4.186,8.574-5.941,10.397-8.506
				c1.08-1.553,2.025-0.743,1.485,1.755c-0.81,3.241-6.751,6.819-9.992,7.494C72.066,194.554,72.134,193.879,72.134,193.406z"/>
			<path id="path2786" fill="#FFFFFF" stroke="#000000" d="M72.404,194.149c5.468-4.928,10.059-3.308,11.747-3.781
				c1.688-0.405,2.363,0.608-0.27,2.633c-3.241,2.43-8.236,2.903-10.329,2.43C71.459,194.959,71.999,194.486,72.404,194.149z"/>
			<path id="path2788" fill="#FFFFFF" stroke="#000000" d="M62.615,201.372c1.553-7.156,6.481-8.641,7.696-9.992
				c1.148-1.35,2.363-0.945,1.35,2.295c-1.215,3.848-5.198,7.224-7.291,8.034C62.345,202.587,62.48,201.912,62.615,201.372z"/>
			<path id="path2790" fill="#FFFFFF" stroke="#000000" d="M62.682,202.317c3.983-6.413,9.181-6.211,10.802-7.089
				c1.553-0.945,2.633-0.135,0.54,2.633c-2.43,3.376-7.426,5.266-9.722,5.401C62.007,203.397,62.412,202.79,62.682,202.317z"/>
			<path id="path2792" fill="#FFFFFF" stroke="#000000" d="M57.551,209.946c-2.295-7.291,2.97-9.992,3.511-11.207
				c0.608-1.215,1.215-1.215,1.553,0.068c1.485,5.198-3.308,10.262-4.051,11.274C57.821,211.026,57.686,210.554,57.551,209.946z"/>
			<path id="path2794" fill="#FFFFFF" stroke="#000000" d="M58.632,211.971c1.823-8.169,6.616-7.696,7.696-8.844
				c1.148-1.148,1.283-0.338,1.08,1.148c-0.54,3.983-5.333,6.684-7.494,8.034C59.239,212.714,58.429,213.187,58.632,211.971z"/>
			<path id="path2796" fill="#FFFFFF" stroke="#000000" d="M54.041,221.558c-3.308-7.696,0.608-12.895,1.823-14.042
				c1.215-1.08,1.958-1.553,1.553,0c-0.54,2.363,1.35,8.439-1.553,12.895C54.918,221.895,54.783,223.313,54.041,221.558z"/>
			<path id="path2798" fill="#FFFFFF" stroke="#000000" d="M55.796,223.111c-0.743-4.726,1.958-9.046,4.861-10.734
				c1.688-1.013,1.755-0.743,1.755,0.675c-0.135,4.388-4.253,8.034-5.468,10.059C55.796,225.001,55.864,223.583,55.796,223.111z"/>
			<path id="path2800" fill="#FFFFFF" stroke="#000000" d="M56.539,235.397c2.43-8.911-2.633-14.042-4.186-15.055
				c-1.485-1.08-2.43-1.485-1.755,0.203c1.013,2.498-0.068,9.451,3.781,13.84C55.594,235.87,55.999,237.423,56.539,235.397z"/>
			<path id="path2802" fill="#FFFFFF" stroke="#000000" d="M55.999,233.44c-2.025-7.764,2.363-12.152,3.713-13.03
				c1.283-0.878,2.093-1.215,1.485,0.203c-0.81,2.16,0.068,8.236-3.308,12.017C56.809,233.912,56.404,235.195,55.999,233.44z"/>
			<path id="path2804" fill="#FFFFFF" stroke="#000000" d="M58.497,229.794c3.646,3.916,3.713,9.654,2.093,13.03
				c-1.013,1.958-1.148,1.823-2.093,0.405c-2.565-4.118-1.013-10.059-1.148-12.692C57.281,228.039,58.091,229.389,58.497,229.794z"
				/>
			<path id="path2806" fill="#FFFFFF" stroke="#000000" d="M52.488,236.005c0,5.401,3.308,9.789,6.819,11.139
				c2.025,0.743,2.025,0.54,1.755-1.08c-0.945-6.076-5.603-8.304-7.291-10.262C52.151,233.912,52.488,235.465,52.488,236.005z"/>
			<path id="path2808" fill="#FFFFFF" stroke="#000000" d="M65.045,252.073c-5.941-5.401-2.768-9.181-3.038-12.692
				c-0.135-1.89,0.608-1.418,1.283-0.743c3.781,3.713,3.983,10.329,3.173,12.894C66.125,252.68,65.585,252.545,65.045,252.073z"/>
			<path id="path2810" fill="#FFFFFF" stroke="#000000" d="M57.079,248.562c1.958,5.941,7.156,9.587,11.544,9.789
				c2.565,0.135,2.498-0.068,1.62-1.823c-3.308-6.346-9.181-7.089-11.814-8.709C55.999,246.334,56.876,247.954,57.079,248.562z"/>
			<path id="path2812" fill="#FFFFFF" stroke="#000000" d="M73.214,259.701c-7.696-3.848-6.143-10.262-7.561-11.882
				c-1.013-1.148,0.203-1.013,0.81-0.608c4.523,2.633,8.169,6.819,8.236,11.274C74.699,260.174,74.564,260.376,73.214,259.701z"/>
			<path id="path2814" fill="#FFFFFF" stroke="#000000" d="M83.745,266.857c-9.721,1.553-14.245-5.806-17.08-6.481
				c-1.485-0.338-0.405-0.945,0.338-1.013c6.481-0.743,14.717,2.295,17.215,5.671C85.231,266.385,85.231,266.655,83.745,266.857z"/>
			<path id="path2816" fill="#FFFFFF" stroke="#000000" d="M73.889,255.313c1.958,6.413,9.249,11.679,14.717,12.084
				c2.565,0.203,2.565-0.068,1.62-1.755c-4.388-7.966-12.017-9.316-14.717-11.342C73.214,252.545,73.686,254.705,73.889,255.313z"/>
		</g>
		<g id="g2818" transform="matrix(1.1355 0 0 1.0324 2.7256 -21.429)">
			<path id="path2820" fill="#106233" d="M107.779,189.693c-1.283-0.945-6.008-0.405-6.886-1.013
				C102.581,190.098,106.361,189.085,107.779,189.693z"/>
			<path id="path2822" fill="#106233" d="M119.188,192.123c-1.013-1.823-7.021-3.038-7.899-4.658
				C112.842,190.571,117.501,190.165,119.188,192.123z"/>
			<path id="path2824" fill="#106233" d="M118.311,194.216c-2.228-2.16-7.426-1.283-8.979-2.565
				C112.977,194.959,115.003,192.393,118.311,194.216z"/>
			<path id="path2826" fill="#106233" d="M105.281,184.63c1.418,0.743,3.173,1.485,4.051,3.241c-1.013-1.35-2.835-1.89-4.321-3.038
				C105.079,184.832,105.214,184.697,105.281,184.63z"/>
			<path id="path2828" fill="#106233" d="M127.425,198.537c-0.878-2.025-3.983-4.253-4.253-4.996
				C124.049,196.174,126.615,196.781,127.425,198.537z"/>
			<path id="path2830" fill="#106233" d="M128.235,202.115c-2.7-4.253-6.954-3.781-8.641-5.401
				C120.876,198.267,125.737,199.279,128.235,202.115z"/>
			<path id="path2832" fill="#106233" d="M134.513,208.663c0.203-4.523-3.173-6.211-3.308-8.776
				C131.138,202.925,134.648,207.043,134.513,208.663z"/>
			<path id="path2834" fill="#106233" d="M132.826,211.094c-0.675-3.916-5.266-4.186-6.076-6.481
				C126.75,206.773,132.15,209.001,132.826,211.094z"/>
			<path id="path2836" fill="#106233" d="M136.606,208.866c2.43,2.97,0.743,7.494,1.755,10.802
				C137.146,217.237,137.754,211.161,136.606,208.866z"/>
			<path id="path2838" fill="#106233" d="M132.623,221.558c3.646,3.916,2.16,8.304,3.646,10.194
				C134.446,229.119,134.716,223.988,132.623,221.558z"/>
			<path id="path2840" fill="#106233" d="M140.184,222.098c-3.105,3.443-1.215,8.641-2.835,11.072
				C139.171,231.077,138.901,224.663,140.184,222.098z"/>
			<path id="path2842" fill="#106233" d="M136.269,222.098c-0.405-3.983-4.118-6.076-4.456-8.236
				C131.408,216.022,135.391,219.397,136.269,222.098z"/>
			<path id="path2844" fill="#106233" d="M134.378,231.617c0.608,2.768-1.62,8.709-0.945,10.532
				C131.948,238.975,134.716,232.967,134.378,231.617z"/>
			<path id="path2846" fill="#106233" d="M139.171,237.963c-1.485,4.928-4.456,4.591-5.401,7.561
				C134.446,242.689,138.361,240.123,139.171,237.963z"/>
			<path id="path2848" fill="#106233" d="M129.518,240.258c-1.958,3.308-0.338,7.089-1.958,9.451
				C129.855,247.347,128.64,242.959,129.518,240.258z"/>
			<path id="path2850" fill="#106233" d="M134.243,249.305c-2.363,4.388-7.224,3.983-9.181,7.156
				C127.02,252.478,133.028,251.802,134.243,249.305z"/>
			<path id="path2852" fill="#106233" d="M125.669,248.764c-4.186,2.903-2.903,5.941-6.076,9.181
				C123.577,254.705,123.239,251.127,125.669,248.764z"/>
			<path id="path2854" fill="#106233" d="M123.712,260.511c-4.051-0.135-9.857,5.131-13.367,4.726
				C113.855,265.98,120.336,261.254,123.712,260.511z"/>
			<path id="path2856" fill="#106233" d="M117.163,255.786c-0.27,4.118-10.802,6.751-11.949,9.519
				C106.496,261.659,115.745,258.959,117.163,255.786z"/>
			<path id="path2858" fill="#106233" d="M93.332,179.836c-1.35-1.148-2.97-2.093-3.443-3.241c0.338,1.485,1.688,2.565,3.038,3.578
				C93.062,180.106,93.197,179.904,93.332,179.836z"/>
			<path id="path2860" fill="#106233" d="M91.037,181.052c-2.093-1.013-4.523-0.945-5.603-2.363c0.675,1.418,2.97,1.958,4.928,2.7
				C90.564,181.254,90.834,181.119,91.037,181.052z"/>
			<path id="path2862" fill="#106233" d="M84.961,189.693c1.283-0.945,6.008-0.405,6.886-1.013
				C90.159,190.098,86.378,189.085,84.961,189.693z"/>
			<path id="path2864" fill="#106233" d="M73.551,192.123c1.013-1.823,7.021-3.038,7.899-4.658
				C79.897,190.571,75.239,190.165,73.551,192.123z"/>
			<path id="path2866" fill="#106233" d="M74.429,194.216c2.228-2.16,7.426-1.283,8.979-2.565
				C79.762,194.959,77.737,192.393,74.429,194.216z"/>
			<path id="path2868" fill="#106233" d="M83.408,187.87c1.283-2.7,4.928-3.038,5.873-4.658
				C87.864,185.642,84.758,186.047,83.408,187.87z"/>
			<path id="path2870" fill="#106233" d="M93.804,185.507c3.713-1.755,7.359-0.27,9.114-1.08
				C100.758,185.575,95.627,185.035,93.804,185.507z"/>
			<path id="path2872" fill="#106233" d="M65.315,198.537c0.878-2.025,3.983-4.253,4.253-4.996
				C68.691,196.174,66.125,196.781,65.315,198.537z"/>
			<path id="path2874" fill="#106233" d="M64.505,202.115c2.7-4.253,6.954-3.781,8.641-5.401
				C71.864,198.267,67.003,199.279,64.505,202.115z"/>
			<path id="path2876" fill="#106233" d="M58.226,208.663c-0.203-4.523,3.173-6.211,3.308-8.776
				C61.602,202.925,58.091,207.043,58.226,208.663z"/>
			<path id="path2878" fill="#106233" d="M59.914,211.094c0.675-3.916,5.266-4.186,6.076-6.481
				C65.99,206.773,60.589,209.001,59.914,211.094z"/>
			<path id="path2880" fill="#106233" d="M56.134,208.866c-2.43,2.97-0.743,7.494-1.755,10.802
				C55.594,217.237,54.986,211.161,56.134,208.866z"/>
			<path id="path2882" fill="#106233" d="M60.117,221.558c-3.646,3.916-2.16,8.304-3.646,10.194
				C58.294,229.119,58.024,223.988,60.117,221.558z"/>
			<path id="path2884" fill="#106233" d="M52.556,222.098c3.105,3.443,1.215,8.641,2.835,11.072
				C53.568,231.077,53.838,224.663,52.556,222.098z"/>
			<path id="path2886" fill="#106233" d="M56.471,222.098c0.405-3.983,4.118-6.076,4.456-8.236
				C61.332,216.022,57.349,219.397,56.471,222.098z"/>
			<path id="path2888" fill="#106233" d="M58.361,231.617c-0.608,2.768,1.62,8.709,0.945,10.532
				C60.792,238.975,58.024,232.967,58.361,231.617z"/>
			<path id="path2890" fill="#106233" d="M53.568,237.963c1.485,4.928,4.456,4.591,5.401,7.561
				C58.294,242.689,54.378,240.123,53.568,237.963z"/>
			<path id="path2892" fill="#106233" d="M63.222,240.258c1.958,3.308,0.338,7.089,1.958,9.451
				C62.885,247.347,64.1,242.959,63.222,240.258z"/>
			<path id="path2894" fill="#106233" d="M58.497,249.305c2.363,4.388,7.224,3.983,9.181,7.156
				C65.72,252.478,59.712,251.802,58.497,249.305z"/>
			<path id="path2896" fill="#106233" d="M67.07,248.764c4.186,2.903,2.903,5.941,6.076,9.181
				C69.163,254.705,69.501,251.127,67.07,248.764z"/>
			<path id="path2898" fill="#106233" d="M69.028,260.511c4.051-0.135,9.857,5.131,13.367,4.726
				C78.885,265.98,72.404,261.254,69.028,260.511z"/>
			<path id="path2900" fill="#106233" d="M75.577,255.786c0.27,4.118,10.802,6.751,11.949,9.519
				C86.243,261.659,76.994,258.959,75.577,255.786z"/>
			<path id="path2902" fill="#106233" d="M90.902,185.642c0.81-3.646,4.861-4.321,5.401-6.481
				C96.1,181.457,91.307,184.022,90.902,185.642z"/>
			<path id="path2904" fill="#106233" d="M102.851,176.596c-0.608,2.768-4.996,4.321-5.603,6.413
				C97.45,180.174,101.973,178.554,102.851,176.596z"/>
			<path id="path2906" fill="#106233" d="M99.408,183.144c2.093-3.376,6.413-2.498,7.899-4.456
				C106.226,180.984,100.893,181.052,99.408,183.144z"/>
		</g>
		<path id="path12826" fill="none" stroke="#F5C611" stroke-linecap="round" stroke-linejoin="round" d="M148.048,210.724
			c0,18.101-16.138,32.774-36.046,32.774s-36.046-14.673-36.046-32.774s16.138-32.774,36.046-32.774
			S148.048,192.623,148.048,210.724z"/>
		<g id="g12874" transform="matrix(1.089 .29066 -.31969 .99014 322.08 9.1715)">
			<path id="path12861" fill="#F5C611" d="M-119.616,271.792v0.405c0,0.27-0.203,0.473-0.473,0.54c-0.675,0-1.553,0.068-2.364,0.068
				l0-2.565c0.878,0,1.756-0.068,2.364-0.135c0.27,0,0.473,0.203,0.473,0.473v0.338 M-125.289,270.981v-0.405
				c0-0.27,0.203-0.473,0.473-0.473c0.675,0.068,1.486,0.135,2.364,0.135l0,2.565c-0.811,0-1.621,0-2.364-0.068
				c-0.27-0.068-0.473-0.54-0.473-0.81"/>
			<path id="path12865" fill="#106233" d="M-120.101,271.711v0.29c0,0.196-0.169,0.338-0.393,0.385
				c-0.562,0-1.292,0.047-1.966,0.047l0-1.836c0.73,0,1.461-0.047,1.966-0.095c0.225,0,0.393,0.142,0.393,0.338v0.243
				 M-124.82,271.13v-0.29c0-0.196,0.169-0.338,0.393-0.338c0.562,0.047,1.236,0.095,1.966,0.095l0,1.836
				c-0.674,0-1.348,0-1.966-0.047c-0.225-0.047-0.393-0.385-0.393-0.581"/>
		</g>
		<g id="g12878" transform="matrix(.95488 .55779 -.61350 .86818 618.66 131.41)">
			<path id="path12880" fill="#F5C611" d="M-331.061,338.169v0.405c0,0.27-0.203,0.473-0.473,0.54c-0.675,0-1.553,0.068-2.364,0.068
				l0-2.565c0.878,0,1.756-0.068,2.364-0.135c0.27,0,0.473,0.203,0.473,0.473v0.338 M-336.735,337.359v-0.405
				c0-0.27,0.203-0.473,0.473-0.473c0.675,0.068,1.486,0.135,2.364,0.135v2.565c-0.811,0-1.621,0-2.364-0.068
				c-0.27-0.068-0.473-0.54-0.473-0.81"/>
			<path id="path12882" fill="#106233" d="M-331.547,338.088v0.29c0,0.196-0.169,0.338-0.393,0.385
				c-0.562,0-1.292,0.047-1.966,0.047l0-1.836c0.73,0,1.461-0.047,1.966-0.095c0.225,0,0.393,0.142,0.393,0.338v0.243
				 M-336.266,337.508v-0.29c0-0.196,0.168-0.338,0.393-0.338c0.562,0.047,1.236,0.095,1.966,0.095v1.836
				c-0.674,0-1.348,0-1.966-0.047c-0.225-0.047-0.393-0.385-0.393-0.581"/>
		</g>
		<g id="g12884" transform="matrix(.74342 .77974 -.85762 .67591 865.37 324.65)">
			<path id="path12886" fill="#F5C611" d="M-515.255,461.423v0.405c0,0.27-0.203,0.473-0.473,0.54c-0.675,0-1.553,0.068-2.364,0.068
				v-2.565c0.878,0,1.756-0.068,2.364-0.135c0.27,0,0.473,0.203,0.473,0.473v0.338 M-520.928,460.612v-0.405
				c0-0.27,0.203-0.473,0.473-0.473c0.675,0.068,1.486,0.135,2.364,0.135l0,2.565c-0.81,0-1.621,0-2.364-0.068
				c-0.27-0.068-0.473-0.54-0.473-0.81"/>
			<path id="path12888" fill="#106233" d="M-515.74,461.341v0.29c0,0.196-0.169,0.338-0.393,0.385c-0.562,0-1.292,0.047-1.966,0.047
				v-1.836c0.73,0,1.461-0.047,1.966-0.095c0.225,0,0.393,0.142,0.393,0.338v0.243 M-520.459,460.761v-0.29
				c0-0.196,0.169-0.338,0.393-0.338c0.562,0.047,1.236,0.095,1.966,0.095l0,1.836c-0.674,0-1.348,0-1.966-0.047
				c-0.225-0.047-0.393-0.385-0.393-0.581"/>
		</g>
		<g id="g12890" transform="matrix(.47175 .93856 -1.0323 .42891 1042.2 573.25)">
			<path id="path12892" fill="#F5C611" d="M-657.263,631.551v0.405c0,0.27-0.203,0.473-0.473,0.54c-0.675,0-1.554,0.068-2.364,0.068
				l0-2.565c0.878,0,1.756-0.068,2.364-0.135c0.27,0,0.473,0.203,0.473,0.473v0.338 M-662.937,630.741v-0.405
				c0-0.27,0.203-0.473,0.473-0.473c0.675,0.068,1.486,0.135,2.364,0.135v2.565c-0.811,0-1.621,0-2.364-0.068
				c-0.27-0.068-0.473-0.54-0.473-0.81"/>
			<path id="path12894" fill="#106233" d="M-657.749,631.47v0.29c0,0.196-0.169,0.338-0.393,0.385c-0.562,0-1.292,0.047-1.966,0.047
				l0-1.836c0.73,0,1.461-0.047,1.966-0.094c0.225,0,0.393,0.142,0.393,0.338v0.243 M-662.468,630.889v-0.29
				c0-0.196,0.168-0.338,0.393-0.338c0.562,0.047,1.236,0.095,1.966,0.095v1.836c-0.674,0-1.348,0-1.966-0.047
				c-0.225-0.047-0.393-0.385-0.393-0.581"/>
		</g>
		<g id="g12896" transform="matrix(.16188 1.0214 -1.1234 .14718 1134.9 857.07)">
			<path id="path12898" fill="#F5C611" d="M-745.59,834.819v0.405c0,0.27-0.203,0.473-0.473,0.54c-0.675,0-1.554,0.068-2.364,0.068
				l0-2.565c0.878,0,1.756-0.068,2.364-0.135c0.27,0,0.473,0.203,0.473,0.473v0.338 M-751.263,834.009v-0.405
				c0-0.27,0.203-0.473,0.473-0.473c0.675,0.068,1.486,0.135,2.364,0.135v2.565c-0.811,0-1.621,0-2.364-0.068
				c-0.27-0.068-0.473-0.54-0.473-0.81"/>
			<path id="path12900" fill="#106233" d="M-746.075,834.738v0.29c0,0.196-0.169,0.338-0.393,0.385
				c-0.562,0-1.292,0.047-1.966,0.047l0-1.836c0.73,0,1.461-0.047,1.966-0.095c0.225,0,0.393,0.142,0.393,0.338v0.243
				 M-750.794,834.157v-0.29c0-0.196,0.168-0.338,0.393-0.338c0.562,0.047,1.236,0.095,1.966,0.095v1.836
				c-0.674,0-1.348,0-1.966-0.047c-0.225-0.047-0.393-0.385-0.393-0.581"/>
		</g>
		<g id="g12902" transform="matrix(-.16110 1.0215 -1.1235 -.14647 1135.9 1153.1)">
			<path id="path12904" fill="#F5C611" d="M-773.075,1054.733v0.405c0,0.27-0.203,0.473-0.473,0.54
				c-0.675,0-1.553,0.068-2.364,0.068v-2.565c0.878,0,1.756-0.068,2.364-0.135c0.27,0,0.473,0.203,0.473,0.473v0.338
				 M-778.748,1053.922v-0.405c0-0.27,0.203-0.473,0.473-0.473c0.675,0.068,1.486,0.135,2.364,0.135v2.565
				c-0.811,0-1.621,0-2.364-0.068c-0.27-0.068-0.473-0.54-0.473-0.81"/>
			<path id="path12906" fill="#106233" d="M-773.56,1054.651v0.29c0,0.196-0.169,0.338-0.393,0.385
				c-0.562,0-1.292,0.047-1.966,0.047l0-1.836c0.73,0,1.461-0.047,1.966-0.094c0.225,0,0.393,0.142,0.393,0.338v0.243
				 M-778.279,1054.071v-0.29c0-0.196,0.169-0.338,0.393-0.338c0.562,0.047,1.236,0.094,1.966,0.094v1.836
				c-0.674,0-1.348,0-1.966-0.047c-0.225-0.047-0.393-0.385-0.393-0.581"/>
		</g>
		<g id="g12908" transform="matrix(-.47103 .93886 -1.0326 -.42826 1045.1 1437.5)">
			<path id="path12910" fill="#F5C611" d="M-737.605,1273.514v0.405c0,0.27-0.203,0.473-0.473,0.54
				c-0.675,0-1.553,0.068-2.364,0.068l0-2.565c0.878,0,1.756-0.068,2.364-0.135c0.27,0,0.473,0.203,0.473,0.473v0.338
				 M-743.279,1272.704v-0.405c0-0.27,0.203-0.473,0.473-0.473c0.675,0.068,1.486,0.135,2.364,0.135v2.565
				c-0.811,0-1.621,0-2.364-0.068c-0.27-0.068-0.473-0.54-0.473-0.81"/>
			<path id="path12912" fill="#106233" d="M-738.091,1273.433v0.29c0,0.196-0.169,0.338-0.393,0.385
				c-0.562,0-1.292,0.047-1.966,0.047v-1.836c0.73,0,1.461-0.047,1.966-0.094c0.225,0,0.393,0.142,0.393,0.338v0.243
				 M-742.81,1272.852v-0.29c0-0.196,0.169-0.338,0.393-0.338c0.562,0.047,1.236,0.094,1.966,0.094l0,1.836
				c-0.674,0-1.348,0-1.966-0.047c-0.225-0.047-0.393-0.385-0.393-0.581"/>
		</g>
		<g id="g12914" transform="matrix(-.74282 .78021 -.85814 -.67537 869.95 1687)">
			<path id="path12916" fill="#F5C611" d="M-641.832,1473.366v0.405c0,0.27-0.203,0.473-0.473,0.54
				c-0.675,0-1.553,0.068-2.364,0.068v-2.565c0.878,0,1.756-0.068,2.364-0.135c0.27,0,0.473,0.203,0.473,0.473v0.338
				 M-647.505,1472.556v-0.405c0-0.27,0.203-0.473,0.473-0.473c0.675,0.068,1.486,0.135,2.364,0.135v2.565
				c-0.811,0-1.621,0-2.364-0.068c-0.27-0.068-0.473-0.54-0.473-0.81"/>
			<path id="path12918" fill="#106233" d="M-642.317,1473.285v0.29c0,0.196-0.169,0.338-0.393,0.385
				c-0.562,0-1.292,0.047-1.966,0.047v-1.836c0.73,0,1.461-0.047,1.966-0.095c0.225,0,0.393,0.142,0.393,0.338v0.243
				 M-647.036,1472.704v-0.29c0-0.196,0.169-0.338,0.393-0.338c0.562,0.047,1.236,0.095,1.966,0.095v1.836
				c-0.674,0-1.348,0-1.966-0.047c-0.225-0.047-0.393-0.385-0.393-0.581"/>
		</g>
		<g id="g12920" transform="matrix(-.95446 .55839 -.61416 -.86779 624.54 1881.6)">
			<path id="path12922" fill="#F5C611" d="M-493.682,1638.185v0.405c0,0.27-0.203,0.473-0.473,0.54
				c-0.675,0-1.553,0.068-2.364,0.068v-2.565c0.878,0,1.756-0.068,2.364-0.135c0.27,0,0.473,0.203,0.473,0.473v0.338
				 M-499.356,1637.375v-0.405c0-0.27,0.203-0.473,0.473-0.473c0.675,0.068,1.486,0.135,2.364,0.135l0,2.565
				c-0.811,0-1.621,0-2.364-0.068c-0.27-0.068-0.473-0.54-0.473-0.81"/>
			<path id="path12924" fill="#106233" d="M-494.168,1638.104v0.29c0,0.196-0.169,0.338-0.393,0.385
				c-0.562,0-1.292,0.047-1.966,0.047l0-1.836c0.73,0,1.461-0.047,1.966-0.094c0.225,0,0.393,0.142,0.393,0.338v0.243
				 M-498.887,1637.524v-0.29c0-0.196,0.169-0.338,0.393-0.338c0.562,0.047,1.236,0.094,1.966,0.094l0,1.836
				c-0.674,0-1.348,0-1.966-0.047c-0.225-0.047-0.393-0.385-0.393-0.581"/>
		</g>
		<g id="g12926" transform="matrix(-1.0888 .29135 -.32045 -.98993 328.78 2005.5)">
			<path id="path12928" fill="#F5C611" d="M-305.124,1754.635v0.405c0,0.27-0.203,0.473-0.473,0.54
				c-0.675,0-1.553,0.068-2.364,0.068v-2.565c0.878,0,1.756-0.068,2.364-0.135c0.27,0,0.473,0.203,0.473,0.473v0.338
				 M-310.798,1753.825v-0.405c0-0.27,0.203-0.473,0.473-0.473c0.675,0.068,1.486,0.135,2.364,0.135l0,2.565
				c-0.811,0-1.621,0-2.364-0.068c-0.27-0.068-0.473-0.54-0.473-0.81"/>
			<path id="path12930" fill="#106233" d="M-305.61,1754.554v0.29c0,0.196-0.169,0.338-0.393,0.385
				c-0.562,0-1.292,0.047-1.966,0.047l0-1.836c0.73,0,1.461-0.047,1.966-0.094c0.225,0,0.393,0.142,0.393,0.338v0.243
				 M-310.329,1753.974v-0.29c0-0.196,0.169-0.338,0.393-0.338c0.562,0.047,1.236,0.094,1.966,0.094l0,1.836
				c-0.674,0-1.348,0-1.966-0.047c-0.225-0.047-0.393-0.385-0.393-0.581"/>
		</g>
		<g id="g12932" transform="matrix(-1.135 .00072019 -.00079212 -1.0319 6.6183 2048.7)">
			<path id="path12934" fill="#F5C611" d="M-91.389,1813.326v0.405c0,0.27-0.203,0.473-0.473,0.54c-0.675,0-1.553,0.068-2.364,0.068
				l0-2.565c0.878,0,1.756-0.068,2.364-0.135c0.27,0,0.473,0.203,0.473,0.473v0.338 M-97.062,1812.515v-0.405
				c0-0.27,0.203-0.473,0.473-0.473c0.675,0.068,1.486,0.135,2.364,0.135l0,2.565c-0.811,0-1.621,0-2.364-0.068
				c-0.27-0.068-0.473-0.54-0.473-0.81"/>
			<path id="path12936" fill="#106233" d="M-91.874,1813.245v0.29c0,0.196-0.169,0.338-0.393,0.385
				c-0.562,0-1.292,0.047-1.966,0.047l0-1.836c0.73,0,1.461-0.047,1.966-0.095c0.225,0,0.393,0.142,0.393,0.338v0.243
				 M-96.593,1812.664v-0.29c0-0.196,0.169-0.338,0.393-0.338c0.562,0.047,1.236,0.095,1.966,0.095l0,1.836
				c-0.674,0-1.348,0-1.966-0.047c-0.225-0.047-0.393-0.385-0.393-0.581"/>
		</g>
		<g id="g12938" transform="matrix(-1.0918 -.28208 .31025 -.99262 -313.06 2009.9)">
			<path id="path12940" fill="#F5C611" d="M119.386,1811.663v0.405c0,0.27-0.203,0.473-0.473,0.54c-0.675,0-1.553,0.068-2.364,0.068
				l0-2.565c0.878,0,1.756-0.068,2.364-0.135c0.27,0,0.473,0.203,0.473,0.473v0.338 M113.712,1810.853v-0.405
				c0-0.27,0.203-0.473,0.473-0.473c0.675,0.068,1.486,0.135,2.364,0.135l0,2.565c-0.811,0-1.621,0-2.364-0.068
				c-0.27-0.068-0.473-0.54-0.473-0.81"/>
			<path id="path12942" fill="#106233" d="M118.9,1811.582v0.29c0,0.196-0.169,0.338-0.393,0.385c-0.562,0-1.292,0.047-1.966,0.047
				l0-1.836c0.73,0,1.461-0.047,1.966-0.094c0.225,0,0.393,0.142,0.393,0.338v0.243 M114.181,1811.001v-0.29
				c0-0.196,0.169-0.338,0.393-0.338c0.562,0.047,1.236,0.094,1.966,0.094l0,1.836c-0.674,0-1.348,0-1.966-0.047
				c-0.225-0.047-0.393-0.385-0.393-0.581"/>
		</g>
		<g id="g12944" transform="matrix(-.96016 -.55025 .60521 -.87297 -610.8 1890)">
			<path id="path12946" fill="#F5C611" d="M332.01,1748.378v0.405c0,0.27-0.203,0.473-0.473,0.54c-0.675,0-1.553,0.068-2.364,0.068
				v-2.565c0.878,0,1.756-0.068,2.364-0.135c0.27,0,0.473,0.203,0.473,0.473v0.338 M326.336,1747.567v-0.405
				c0-0.27,0.203-0.473,0.473-0.473c0.675,0.068,1.486,0.135,2.364,0.135l0,2.565c-0.811,0-1.621,0-2.364-0.068
				c-0.27-0.068-0.473-0.54-0.473-0.81"/>
			<path id="path12948" fill="#106233" d="M331.525,1748.297v0.29c0,0.196-0.169,0.338-0.393,0.385
				c-0.562,0-1.292,0.047-1.966,0.047l0-1.836c0.73,0,1.461-0.047,1.966-0.094c0.225,0,0.393,0.142,0.393,0.338v0.243
				 M326.806,1747.716v-0.29c0-0.196,0.169-0.338,0.393-0.338c0.562,0.047,1.236,0.094,1.966,0.094l0,1.836
				c-0.674,0-1.348,0-1.966-0.047c-0.225-0.047-0.393-0.385-0.393-0.581"/>
		</g>
		<g id="g12950" transform="matrix(-.75081 -.77386 .85115 -.68264 -859.34 1698.7)">
			<path id="path12952" fill="#F5C611" d="M518.17,1627.76v0.405c0,0.27-0.203,0.473-0.473,0.54c-0.675,0-1.554,0.068-2.364,0.068
				l0-2.565c0.878,0,1.756-0.068,2.364-0.135c0.27,0,0.473,0.203,0.473,0.473v0.338 M512.496,1626.95v-0.405
				c0-0.27,0.203-0.473,0.473-0.473c0.675,0.068,1.486,0.135,2.364,0.135v2.565c-0.811,0-1.621,0-2.364-0.068
				c-0.27-0.068-0.473-0.54-0.473-0.81"/>
			<path id="path12954" fill="#106233" d="M517.684,1627.679v0.29c0,0.196-0.169,0.338-0.393,0.385
				c-0.562,0-1.292,0.047-1.966,0.047l0-1.836c0.73,0,1.461-0.047,1.966-0.094c0.225,0,0.393,0.142,0.393,0.338v0.243
				 M512.965,1627.098v-0.29c0-0.196,0.168-0.338,0.393-0.338c0.562,0.047,1.236,0.094,1.966,0.094v1.836
				c-0.674,0-1.348,0-1.966-0.047c-0.225-0.047-0.393-0.385-0.393-0.581"/>
		</g>
		<g id="g12956" transform="matrix(-.48067 -.93481 1.0282 -.43702 -1038.6 1451.5)">
			<path id="path12958" fill="#F5C611" d="M662.833,1459.601v0.405c0,0.27-0.203,0.473-0.473,0.54c-0.675,0-1.554,0.068-2.364,0.068
				l0-2.565c0.878,0,1.756-0.068,2.364-0.135c0.27,0,0.473,0.203,0.473,0.473v0.338 M657.159,1458.791v-0.405
				c0-0.27,0.203-0.473,0.473-0.473c0.675,0.068,1.486,0.135,2.364,0.135v2.565c-0.811,0-1.621,0-2.364-0.068
				c-0.27-0.068-0.473-0.54-0.473-0.81"/>
			<path id="path12960" fill="#106233" d="M662.347,1459.52v0.29c0,0.196-0.169,0.338-0.393,0.385c-0.562,0-1.292,0.047-1.966,0.047
				l0-1.836c0.73,0,1.461-0.047,1.966-0.094c0.225,0,0.393,0.142,0.393,0.338v0.243 M657.628,1458.939v-0.29
				c0-0.196,0.168-0.338,0.393-0.338c0.562,0.047,1.236,0.094,1.966,0.094v1.836c-0.674,0-1.348,0-1.966-0.047
				c-0.225-0.047-0.393-0.385-0.393-0.581"/>
		</g>
		<g id="g12962" transform="matrix(-.17160 -1.0201 1.1219 -.15602 -1133.9 1168.4)">
			<path id="path12964" fill="#F5C611" d="M754.221,1257.494v0.405c0,0.27-0.203,0.473-0.473,0.54c-0.675,0-1.553,0.068-2.364,0.068
				v-2.565c0.878,0,1.756-0.068,2.364-0.135c0.27,0,0.473,0.203,0.473,0.473v0.338 M748.547,1256.684v-0.405
				c0-0.27,0.203-0.473,0.473-0.473c0.675,0.068,1.486,0.135,2.364,0.135v2.565c-0.811,0-1.621,0-2.364-0.068
				c-0.27-0.068-0.473-0.54-0.473-0.81"/>
			<path id="path12966" fill="#106233" d="M753.735,1257.413v0.29c0,0.196-0.169,0.338-0.393,0.385
				c-0.562,0-1.292,0.047-1.966,0.047l0-1.836c0.73,0,1.461-0.047,1.966-0.095c0.225,0,0.393,0.142,0.393,0.338v0.243
				 M749.016,1256.833v-0.29c0-0.196,0.169-0.338,0.393-0.338c0.562,0.047,1.236,0.095,1.966,0.095v1.836
				c-0.674,0-1.348,0-1.966-0.047c-0.225-0.047-0.393-0.385-0.393-0.581"/>
		</g>
		<g id="g12968" transform="matrix(.15136 -1.0227 1.1248 .13762 -1137.7 872.37)">
			<path id="path12970" fill="#F5C611" d="M785.081,1037.819v0.405c0,0.27-0.203,0.473-0.473,0.54c-0.675,0-1.553,0.068-2.364,0.068
				v-2.565c0.878,0,1.756-0.068,2.364-0.135c0.27,0,0.473,0.203,0.473,0.473v0.338 M779.407,1037.009v-0.405
				c0-0.27,0.203-0.473,0.473-0.473c0.675,0.068,1.486,0.135,2.364,0.135v2.565c-0.811,0-1.621,0-2.364-0.068
				c-0.27-0.068-0.473-0.54-0.473-0.81"/>
			<path id="path12972" fill="#106233" d="M784.596,1037.738v0.29c0,0.196-0.169,0.338-0.393,0.385
				c-0.562,0-1.292,0.047-1.966,0.047l0-1.836c0.73,0,1.461-0.047,1.966-0.094c0.225,0,0.393,0.142,0.393,0.338v0.243
				 M779.877,1037.157v-0.29c0-0.196,0.169-0.338,0.393-0.338c0.562,0.047,1.236,0.094,1.966,0.094v1.836
				c-0.674,0-1.348,0-1.966-0.047c-0.225-0.047-0.393-0.385-0.393-0.581"/>
		</g>
		<g id="g12974" transform="matrix(.46207 -.94253 1.0367 .42011 -1049.7 587.33)">
			<path id="path12976" fill="#F5C611" d="M752.755,818.35v0.405c0,0.27-0.203,0.473-0.473,0.54c-0.675,0-1.553,0.068-2.364,0.068
				v-2.565c0.878,0,1.756-0.068,2.364-0.135c0.27,0,0.473,0.203,0.473,0.473v0.338 M747.082,817.54v-0.405
				c0-0.27,0.203-0.473,0.473-0.473c0.675,0.068,1.486,0.135,2.364,0.135v2.565c-0.811,0-1.621,0-2.364-0.068
				c-0.27-0.068-0.473-0.54-0.473-0.81"/>
			<path id="path12978" fill="#106233" d="M752.27,818.269v0.29c0,0.196-0.169,0.338-0.393,0.385c-0.562,0-1.292,0.047-1.966,0.047
				v-1.836c0.73,0,1.461-0.047,1.966-0.095c0.225,0,0.393,0.142,0.393,0.338v0.243 M747.551,817.688v-0.29
				c0-0.196,0.169-0.338,0.393-0.338c0.562,0.047,1.236,0.095,1.966,0.095v1.836c-0.674,0-1.348,0-1.966-0.047
				c-0.225-0.047-0.393-0.385-0.393-0.581"/>
		</g>
		<g id="g12980" transform="matrix(.73536 -.78603 .86454 .66859 -876.89 336.39)">
			<path id="path12982" fill="#F5C611" d="M659.947,616.883v0.405c0,0.27-0.203,0.473-0.473,0.54c-0.675,0-1.554,0.068-2.364,0.068
				l0-2.565c0.878,0,1.756-0.068,2.364-0.135c0.27,0,0.473,0.203,0.473,0.473v0.338 M654.273,616.073v-0.405
				c0-0.27,0.203-0.473,0.473-0.473c0.675,0.068,1.486,0.135,2.364,0.135v2.565c-0.811,0-1.621,0-2.364-0.068
				c-0.27-0.068-0.473-0.54-0.473-0.81"/>
			<path id="path12984" fill="#106233" d="M659.461,616.802v0.29c0,0.196-0.169,0.338-0.393,0.385c-0.562,0-1.292,0.047-1.966,0.047
				l0-1.836c0.73,0,1.461-0.047,1.966-0.094c0.225,0,0.393,0.142,0.393,0.338v0.243 M654.743,616.221v-0.29
				c0-0.196,0.169-0.338,0.393-0.338c0.562,0.047,1.236,0.094,1.966,0.094v1.836c-0.674,0-1.348,0-1.966-0.047
				c-0.225-0.047-0.393-0.385-0.393-0.581"/>
		</g>
		<g id="g12986" transform="matrix(.94910 -.56588 .62240 .86292 -633.34 139.86)">
			<path id="path12988" fill="#F5C611" d="M514.133,449.711v0.405c0,0.27-0.203,0.473-0.473,0.54c-0.675,0-1.553,0.068-2.364,0.068
				l0-2.565c0.878,0,1.756-0.068,2.364-0.135c0.27,0,0.473,0.203,0.473,0.473v0.338 M508.459,448.901v-0.405
				c0-0.27,0.203-0.473,0.473-0.473c0.675,0.068,1.486,0.135,2.364,0.135v2.565c-0.811,0-1.621,0-2.364-0.068
				c-0.27-0.068-0.473-0.54-0.473-0.81"/>
			<path id="path12990" fill="#106233" d="M513.647,449.63v0.29c0,0.196-0.169,0.338-0.393,0.385c-0.562,0-1.292,0.047-1.966,0.047
				v-1.836c0.73,0,1.461-0.047,1.966-0.095c0.225,0,0.393,0.142,0.393,0.338v0.243 M508.928,449.049v-0.29
				c0-0.196,0.169-0.338,0.393-0.338c0.562,0.047,1.236,0.095,1.966,0.095l0,1.836c-0.674,0-1.348,0-1.966-0.047
				c-0.225-0.047-0.393-0.385-0.393-0.581"/>
		</g>
		<g id="g12992" transform="matrix(1.086 -.29991 .32987 .98737 -338.77 13.655)">
			<path id="path12994" fill="#F5C611" d="M327.128,330.383v0.405c0,0.27-0.203,0.473-0.473,0.54c-0.675,0-1.553,0.068-2.364,0.068
				l0-2.565c0.878,0,1.756-0.068,2.364-0.135c0.27,0,0.473,0.203,0.473,0.473v0.338 M321.454,329.573v-0.405
				c0-0.27,0.203-0.473,0.473-0.473c0.675,0.068,1.486,0.135,2.364,0.135v2.565c-0.811,0-1.621,0-2.364-0.068
				c-0.27-0.068-0.473-0.54-0.473-0.81"/>
			<path id="path12996" fill="#106233" d="M326.643,330.302v0.29c0,0.196-0.169,0.338-0.393,0.385c-0.562,0-1.292,0.047-1.966,0.047
				l0-1.836c0.73,0,1.461-0.047,1.966-0.095c0.225,0,0.393,0.142,0.393,0.338v0.243 M321.924,329.722v-0.29
				c0-0.196,0.168-0.338,0.393-0.338c0.562,0.047,1.236,0.095,1.966,0.095v1.836c-0.674,0-1.348,0-1.966-0.047
				c-0.225-0.047-0.393-0.385-0.393-0.581"/>
		</g>
		<g id="g12998" transform="matrix(1.1349 -.0096543 .010618 1.0319 -17.033 -32.001)">
			<path id="path13000" fill="#F5C611" d="M114.102,268.554v0.405c0,0.27-0.203,0.473-0.473,0.54c-0.675,0-1.553,0.068-2.364,0.068
				l0-2.565c0.878,0,1.756-0.068,2.364-0.135c0.27,0,0.473,0.203,0.473,0.473v0.338 M108.429,267.744v-0.405
				c0-0.27,0.203-0.473,0.473-0.473c0.675,0.068,1.486,0.135,2.364,0.135l0,2.565c-0.811,0-1.621,0-2.364-0.068
				c-0.27-0.068-0.473-0.54-0.473-0.81"/>
			<path id="path13002" fill="#106233" d="M113.617,268.473v0.29c0,0.196-0.169,0.338-0.393,0.385c-0.562,0-1.292,0.047-1.966,0.047
				l0-1.836c0.73,0,1.461-0.047,1.966-0.095c0.225,0,0.393,0.142,0.393,0.338v0.243 M108.898,267.893v-0.29
				c0-0.196,0.169-0.338,0.393-0.338c0.562,0.047,1.236,0.095,1.966,0.095l0,1.836c-0.674,0-1.348,0-1.966-0.047
				c-0.225-0.047-0.393-0.385-0.393-0.581"/>
		</g>
	</g>
</g>
</svg>
