<?xml version="1.0" encoding="utf-8"?>
<!-- Generator: Adobe Illustrator 24.2.1, SVG Export Plug-In . SVG Version: 6.00 Build 0)  -->
<svg version="1.1" id="Слой_1" xmlns="http://www.w3.org/2000/svg" xmlns:xlink="http://www.w3.org/1999/xlink" x="0px" y="0px"
	 viewBox="0 0 250 180" style="enable-background:new 0 0 250 180;" xml:space="preserve">
<style type="text/css">
	.st0{fill:#D52A1E;}
	.st1{fill:#1B3994;}
	.st2{fill:#FFFFFF;}
	.st3{fill:#DE2910;}
	.st4{fill:#FFDE00;}
</style>
<rect x="-1" y="120" class="st0" width="270" height="60"/>
<rect x="-1" y="60" class="st1" width="270" height="60"/>
<rect x="-1" class="st2" width="270" height="60"/>
<rect x="-2" y="-0.7" class="st3" width="272" height="181.3"/>
<g transform="translate(5,5) scale(3)">
	<path id="s" class="st4" d="M9.7,5l4.6,14L2.4,10.4h14.7L5.2,19L9.7,5z"/>
</g>
<g transform="translate(10,2) rotate(23.036243)">
	<path id="s_1_" class="st4" d="M60.5-13L59.1,3.2l-8.3-13.9l14.9,6.3L49.9-0.8L60.5-13z"/>
</g>
<g transform="translate(12,4) rotate(45.869898)">
	<path id="s_2_" class="st4" d="M90.1,2.2l-7.6,14.3l-2.3-16L91.5,12L75.5,9.2L90.1,2.2z"/>
</g>
<g transform="translate(12,7) rotate(69.945396)">
	<path id="s_3_" class="st4" d="M75.8-46.7l-12.8,9.9l4.4-15.6L73-37.2l-13.4-9L75.8-46.7z"/>
</g>
<g transform="translate(10,9) rotate(20.659808)">
	<path id="s_4_" class="st4" d="M74.6-6.5L73.9,9.6L65-3.9l15.1,5.7L64.5,6.2L74.6-6.5z"/>
</g>
</svg>
