<?xml version="1.0" encoding="utf-8"?>
<!-- Generator: Adobe Illustrator 24.2.1, SVG Export Plug-In . SVG Version: 6.00 Build 0)  -->
<svg version="1.1" id="Слой_1" xmlns="http://www.w3.org/2000/svg" xmlns:xlink="http://www.w3.org/1999/xlink" x="0px" y="0px"
	 viewBox="0 0 250 180" style="enable-background:new 0 0 250 180;" xml:space="preserve">
<style type="text/css">
	.st0{fill:#FFFFFF;}
	.st1{stroke:#000000;stroke-width:5;stroke-miterlimit:50;}
	.st2{stroke:#FFFFFF;stroke-width:12.5;stroke-miterlimit:50;}
	.st3{fill:#CD2E3A;}
	.st4{fill:#0047A0;}
</style>
<rect x="-12.4" y="-1.6" class="st0" width="274.8" height="183.2"/>
<g transform="rotate(-56.3099325)">
	<g id="b2">
		<path id="b" class="st1" d="M-28.4,58.5l45.8,0 M-28.4,70h45.8 M-28.4,81.4h45.8"/>
		<g>
			<path id="b_1_" class="st1" d="M-28.4,226.5h45.8 M-28.4,237.9h45.8 M-28.4,249.4h45.8"/>
		</g>
	</g>
	<path class="st2" d="M-5.5,218.8l0,38.2"/>
	<circle class="st3" cx="-5.5" cy="153.9" r="45.8"/>
	<path class="st4" d="M-5.5,108.1c-12.6,0-22.9,10.3-22.9,22.9s10.3,22.9,22.9,22.9s22.9,10.3,22.9,22.9S7.1,199.7-5.5,199.7
		c-25.3,0-45.8-20.5-45.8-45.8S-30.8,108.1-5.5,108.1z"/>
</g>
<g transform="rotate(-123.6900675)">
	<g>
		<g id="b2_1_">
			<path id="b_2_" class="st1" d="M-167.1-41.3l45.8,0 M-167.1-29.9l45.8,0 M-167.1-18.4l45.8,0"/>
			<g>
				<path id="b_3_" class="st1" d="M-167.1,126.6h45.8 M-167.1,138.1h45.8 M-167.1,149.5h45.8"/>
			</g>
		</g>
	</g>
	<path class="st2" d="M-144.2-35.6v11.5 M-144.2,119v13.4 M-144.2,143.8v11.5"/>
</g>
</svg>
