<?xml version="1.0" encoding="utf-8"?>
<!-- Generator: Adobe Illustrator 17.0.0, SVG Export Plug-In . SVG Version: 6.00 Build 0)  -->
<!DOCTYPE svg PUBLIC "-//W3C//DTD SVG 1.1//EN" "http://www.w3.org/Graphics/SVG/1.1/DTD/svg11.dtd">
<svg version="1.1" id="Слой_1" xmlns="http://www.w3.org/2000/svg" xmlns:xlink="http://www.w3.org/1999/xlink" x="0px" y="0px"
	 width="250px" height="180px" viewBox="0 0 250 180" enable-background="new 0 0 250 180" xml:space="preserve">
<rect y="-0.319" fill="#FA0F0C" width="270.479" height="180.319"/>
<rect y="-0.319" fill="#136926" width="108.192" height="180.319"/>
<g>
	<path fill="#F7F719" stroke="#000000" stroke-width="0.2" stroke-linecap="round" stroke-linejoin="round" d="M143.462,117.808
		c-13.619-0.41-76.068-39.391-76.496-45.598l3.448-5.751c6.194,9.001,70.036,46.91,76.307,45.567l-3.259,5.781"/>
	<path fill="#F7F719" stroke="#000000" stroke-width="0.2" stroke-linecap="round" stroke-linejoin="round" d="M69.689,65.678
		c-1.222,3.288,16.296,14.118,37.373,26.937c21.076,12.818,39.249,20.739,40.596,19.603c0.082-0.147,0.663-1.145,0.609-1.137
		c-0.252,0.38-0.867,0.501-1.826,0.224c-5.694-1.642-20.545-8.459-38.937-19.612c-18.392-11.154-34.393-21.433-36.88-25.8
		c-0.173-0.303-0.296-0.855-0.271-1.284l-0.06-0.001l-0.53,0.926L69.689,65.678L69.689,65.678L69.689,65.678z M143.782,117.988
		c-0.231,0.419-0.662,0.433-1.479,0.343c-5.094-0.564-20.551-8.081-38.842-19.03C82.179,86.562,64.602,74.954,66.509,71.92
		l0.519-0.917l0.102,0.032c-1.715,5.141,34.688,25.956,36.831,27.283c21.063,13.049,38.82,20.67,40.392,18.689l-0.572,0.983v-0.001
		L143.782,117.988z"/>
	<path fill="#F7F719" stroke="#000000" stroke-width="0.2" stroke-linecap="round" stroke-linejoin="round" d="M108.268,75.969
		c13.631-0.108,30.451-1.863,40.131-5.721l-2.086-3.389c-5.722,3.167-22.635,5.249-38.161,5.561
		c-18.364-0.169-31.326-1.879-37.821-6.237l-1.969,3.608C80.303,74.844,92.537,75.917,108.268,75.969"/>
	<path fill="#F7F719" stroke="#000000" stroke-width="0.2" stroke-linecap="round" stroke-linejoin="round" d="M148.962,70.325
		c-0.333,0.533-6.646,2.71-15.946,4.317c-6.306,0.961-14.531,1.783-24.796,1.793c-9.752,0.009-17.719-0.685-23.75-1.502
		c-9.762-1.531-14.801-3.661-16.664-4.413c0.178-0.354,0.293-0.603,0.464-0.934c5.362,2.135,10.424,3.422,16.355,4.335
		c5.992,0.811,13.862,1.516,23.566,1.506c10.217-0.01,18.352-0.895,24.621-1.827c9.537-1.538,14.746-3.518,15.478-4.437l0.673,1.163
		H148.962L148.962,70.325z M147.131,66.889c-1.034,0.83-6.184,2.657-15.246,4.104c-6.047,0.867-13.737,1.642-23.561,1.652
		c-9.333,0.009-16.959-0.62-22.759-1.465c-9.203-1.202-14.101-3.37-15.866-4.002c0.176-0.304,0.355-0.605,0.538-0.908
		c1.374,0.692,6.101,2.611,15.429,3.932c5.734,0.813,13.371,1.419,22.658,1.409c9.778-0.01,17.38-0.801,23.389-1.663
		c9.108-1.253,14.009-3.583,14.754-4.166L147.131,66.889L147.131,66.889L147.131,66.889z"/>
	<path fill="#F7F719" stroke="#000000" stroke-width="0.2" stroke-linecap="round" stroke-linejoin="round" d="M63.508,92.392
		c8.384,4.509,27.005,6.782,44.626,6.938c16.044,0.025,36.946-2.48,44.763-6.622l-0.215-4.513
		c-2.445,3.822-24.845,7.487-44.722,7.337c-19.877-0.15-38.335-3.22-44.488-7.194l0.036,4.053"/>
	<path fill="#F7F719" stroke="#000000" stroke-width="0.2" stroke-linecap="round" stroke-linejoin="round" d="M153.325,91.743
		l0,1.076c-1.175,1.405-8.541,3.528-17.778,5.023c-7.03,1.078-16.196,1.891-27.617,1.891c-10.85,0-19.503-0.774-26.213-1.804
		c-10.607-1.545-17.391-4.249-18.753-5.057l0.006-1.256c4.091,2.72,15.174,4.709,18.896,5.319
		c6.666,1.023,15.268,1.791,26.064,1.791c11.367,0,20.482-0.807,27.468-1.878C142.025,95.891,151.466,93.401,153.325,91.743
		L153.325,91.743L153.325,91.743z M153.33,87.914l0,1.076c-1.175,1.404-8.541,3.527-17.778,5.022
		c-7.03,1.078-16.196,1.891-27.617,1.891c-10.85,0-19.503-0.773-26.213-1.804c-10.607-1.544-17.391-4.249-18.753-5.056l0.006-1.256
		c4.091,2.719,15.174,4.709,18.896,5.318c6.666,1.024,15.268,1.792,26.064,1.792c11.367,0,20.482-0.808,27.468-1.879
		C142.03,92.061,151.471,89.571,153.33,87.914L153.33,87.914L153.33,87.914z"/>
	<path fill="#F7F719" stroke="#000000" stroke-width="0.2" stroke-linecap="round" stroke-linejoin="round" d="M108.097,117.033
		c-19.282-0.115-35.803-5.256-39.292-6.106l2.544,3.983c6.162,2.592,22.28,6.455,36.933,6.028
		c14.653-0.427,27.458-1.562,36.482-5.955l2.608-4.127C141.223,113.751,120.294,117.003,108.097,117.033"/>
	<path fill="#F7F719" stroke="#000000" stroke-width="0.2" stroke-linecap="round" stroke-linejoin="round" d="M145.743,114.057
		c-0.383,0.586-0.774,1.164-1.17,1.726c-4.256,1.501-10.963,3.076-13.793,3.536c-5.781,1.191-14.725,2.071-22.663,2.075
		c-17.081-0.25-31.062-3.594-37.64-6.446l-0.531-0.912l0.087-0.137l0.9,0.349c11.697,4.185,24.835,5.855,37.28,6.154
		c7.906,0.028,15.821-0.906,22.221-2.051c9.814-1.966,13.783-3.449,15-4.121L145.743,114.057L145.743,114.057L145.743,114.057z
		 M148.005,110.327c0.01,0.012,0.02,0.023,0.029,0.035c-0.287,0.484-0.582,0.976-0.885,1.471c-2.27,0.811-8.431,2.614-17.427,3.872
		c-5.928,0.807-9.612,1.59-21.403,1.819c-22.096-0.562-36.402-4.883-39.801-5.948l-0.504-0.966
		c12.805,3.343,25.886,5.676,40.305,5.915c10.788-0.23,15.378-1.024,21.256-1.826c10.491-1.631,15.776-3.358,17.363-3.857
		c-0.02-0.029-0.043-0.059-0.07-0.09l1.137-0.425L148.005,110.327L148.005,110.327z"/>
	<path fill="#F7F719" stroke="#000000" stroke-width="0.2" stroke-linecap="round" stroke-linejoin="round" d="M148.236,88.831
		c0.063,12.684-6.428,24.066-11.657,29.088c-7.397,7.104-17.204,11.674-28.657,11.884c-12.789,0.235-24.848-8.103-28.082-11.765
		c-6.324-7.161-11.472-16.254-11.637-28.51c0.783-13.844,6.218-23.487,14.096-30.099s18.367-9.833,27.102-9.603
		c10.079,0.266,21.852,5.21,29.988,15.026C144.718,71.282,147.026,78.262,148.236,88.831L148.236,88.831z M108.031,45.4
		c24.562,0,44.762,19.987,44.762,44.495c0,24.507-20.201,44.496-44.762,44.496s-44.595-19.988-44.595-44.496
		S83.469,45.4,108.031,45.4"/>
	<path fill="#F7F719" stroke="#000000" stroke-width="0.2" stroke-linecap="round" stroke-linejoin="round" d="M108.151,45.247
		c24.584,0,44.634,20.053,44.634,44.639c0,24.586-20.051,44.638-44.634,44.638c-24.584,0-44.634-20.052-44.634-44.638
		S83.568,45.247,108.151,45.247L108.151,45.247z M64.499,89.887c0,24.009,19.716,43.656,43.652,43.656
		c23.936,0,43.652-19.647,43.652-43.656c0-24.01-19.717-43.657-43.652-43.657S64.499,65.877,64.499,89.887L64.499,89.887z"/>
	<path fill="#F7F719" stroke="#000000" stroke-width="0.2" stroke-miterlimit="10" d="M108.187,48.958
		c22.419,0,40.884,18.402,40.884,40.889c0,22.488-18.466,40.889-40.884,40.889s-40.884-18.401-40.884-40.889
		C67.303,67.36,85.769,48.958,108.187,48.958L108.187,48.958z M68.285,89.846c0,21.947,18.022,39.906,39.902,39.906
		s39.902-17.959,39.902-39.906c0-21.948-18.022-39.907-39.902-39.907C86.307,49.94,68.285,67.899,68.285,89.846L68.285,89.846z"/>
	<path fill="#F7F719" stroke="#000000" stroke-width="0.2" stroke-linecap="round" stroke-linejoin="round" d="M109.986,45.067
		h-3.825l0.005,89.691h3.838L109.986,45.067z"/>
	<path fill="#F7F719" stroke="#000000" stroke-width="0.2" stroke-linecap="round" stroke-linejoin="round" d="M109.603,44.556
		h0.974l0.008,90.723h-0.974L109.603,44.556L109.603,44.556z M105.806,44.557h0.981l0.001,90.723h-0.982L105.806,44.557
		L105.806,44.557z"/>
	<path fill="#F7F719" stroke="#000000" stroke-width="0.2" stroke-linecap="round" stroke-linejoin="round" d="M152.816,91.614
		v-3.316l-2.7-2.515l-15.327-4.057L112.7,79.472l-26.597,1.352l-18.934,4.508l-3.823,2.831v3.317l9.683-4.344l22.991-3.606h22.089
		l16.229,1.803l11.27,2.705L152.816,91.614z"/>
	<path fill="#F7F719" stroke="#000000" stroke-width="0.2" stroke-linecap="round" stroke-linejoin="round" d="M108.169,82.975
		c10.541-0.019,20.768,0.999,28.88,2.578c8.371,1.673,14.262,3.767,16.276,6.118l-0.002,1.164
		c-2.429-2.926-10.356-5.071-16.462-6.297c-8.05-1.566-18.209-2.577-28.692-2.558c-11.062,0.021-21.362,1.068-29.295,2.616
		c-6.365,1.263-14.854,3.772-15.914,6.247v-1.212c0.582-1.713,6.903-4.273,15.771-6.048C86.723,84.025,97.042,82.995,108.169,82.975
		L108.169,82.975z M108.173,79.146c10.541-0.019,20.768,1,28.88,2.578c8.371,1.674,14.262,3.767,16.276,6.118l-0.002,1.164
		c-2.429-2.925-10.356-5.07-16.462-6.296c-8.05-1.567-18.209-2.578-28.692-2.558c-11.062,0.02-21.312,1.068-29.246,2.615
		c-6.143,1.165-14.978,3.773-15.964,6.248v-1.213c0.582-1.694,7.031-4.346,15.771-6.048C86.728,80.197,97.047,79.168,108.173,79.146
		L108.173,79.146z"/>
	<path fill="#F7F719" stroke="#000000" stroke-width="0.2" stroke-linecap="round" stroke-linejoin="round" d="M107.957,59.619
		c16.611-0.083,31.101,2.323,37.73,5.718l2.418,4.183c-5.762-3.105-21.393-6.334-40.123-5.851
		c-15.261,0.094-31.568,1.68-39.75,6.045l2.887-4.828C77.833,61.405,93.668,59.638,107.957,59.619"/>
	<path fill="#F7F719" stroke="#000000" stroke-width="0.2" stroke-linecap="round" stroke-linejoin="round" d="M108.178,63.072
		c9.474-0.025,18.629,0.509,25.91,1.823c6.78,1.262,13.247,3.156,14.171,4.175l0.717,1.267c-2.249-1.468-7.844-3.103-15.029-4.466
		c-7.215-1.356-16.364-1.805-25.786-1.781c-10.694-0.037-19.002,0.528-26.132,1.771c-7.541,1.411-12.773,3.427-14.064,4.385
		l0.702-1.339c2.508-1.279,6.487-2.822,13.174-4.025C89.215,63.534,97.612,63.13,108.178,63.072L108.178,63.072L108.178,63.072z
		 M108.174,59.247c9.067-0.024,18.019,0.481,24.998,1.736c5.504,1.071,10.947,2.744,12.94,4.233l1.048,1.666
		c-1.782-1.981-8.491-3.859-14.414-4.91c-6.925-1.194-15.505-1.667-24.572-1.743c-9.515,0.027-18.309,0.609-25.133,1.852
		c-6.51,1.239-10.711,2.706-12.488,3.851l0.922-1.392c2.453-1.291,6.416-2.477,11.407-3.447
		C89.755,59.842,98.603,59.274,108.174,59.247L108.174,59.247z"/>
	<path fill="#F7F719" stroke="#000000" stroke-width="0.2" stroke-linecap="round" stroke-linejoin="round" d="M130.348,108.44
		c-8.213-1.533-16.44-1.756-22.187-1.688c-27.682,0.324-36.625,5.684-37.716,7.307l-2.069-3.373
		c7.048-5.108,22.122-7.973,39.935-7.68c9.249,0.151,17.231,0.766,23.946,2.066L130.348,108.44"/>
	<path fill="#F7F719" stroke="#000000" stroke-width="0.2" stroke-linecap="round" stroke-linejoin="round" d="M108.002,106.276
		c7.701,0.115,15.259,0.433,22.555,1.793l-0.528,0.933c-6.776-1.251-14-1.729-22-1.69c-10.216-0.08-20.55,0.874-29.546,3.456
		c-2.839,0.79-7.538,2.615-8.017,4.123l-0.526-0.867c0.151-0.891,2.992-2.741,8.301-4.233
		C88.545,106.841,98.184,106.343,108.002,106.276L108.002,106.276L108.002,106.276z M108.352,102.401
		c7.978,0.149,16.217,0.518,24.226,2.104l-0.55,0.971c-7.232-1.436-14.141-1.914-23.629-2.06
		c-10.249,0.019-21.12,0.749-31.005,3.623c-3.191,0.93-8.699,2.939-8.883,4.531l-0.526-0.931c0.12-1.445,4.888-3.33,9.177-4.578
		C87.124,103.165,98.024,102.42,108.352,102.401L108.352,102.401z"/>
	<path fill="#F7F719" stroke="#000000" stroke-width="0.2" stroke-linecap="round" stroke-linejoin="round" d="M147.672,111.199
		l-3.326,5.161l-9.557-8.488l-24.794-16.68L82.045,75.866l-14.511-4.963l3.092-5.734l1.05-0.573l9.016,2.254l29.753,15.327
		l17.13,10.819l14.426,10.368l5.86,6.762L147.672,111.199z"/>
	<path fill="#F7F719" stroke="#000000" stroke-width="0.2" stroke-linecap="round" stroke-linejoin="round" d="M67.011,71.038
		c2.545-1.726,21.25,6.606,40.822,18.408c19.52,11.835,38.172,25.209,36.488,27.712l-0.554,0.871l-0.254,0.2
		c0.054-0.039,0.335-0.382-0.027-1.31c-0.832-2.737-14.063-13.294-36.016-26.55C86.069,77.607,68.232,69.916,66.449,72.114
		L67.011,71.038L67.011,71.038L67.011,71.038z M148.353,111.126c1.609-3.179-15.74-16.249-37.25-28.974
		C89.098,69.68,73.238,62.339,70.342,64.528L69.698,65.7c-0.006,0.064,0.023-0.08,0.159-0.185c0.527-0.46,1.4-0.429,1.794-0.436
		c4.988,0.075,19.234,6.631,39.222,18.09c8.758,5.101,36.997,23.212,36.89,28.305c0.008,0.438,0.036,0.528-0.128,0.745
		L148.353,111.126L148.353,111.126L148.353,111.126z"/>
</g>
<g>
	<path fill="#FFFFFF" stroke="#000000" stroke-width="0.6704" d="M81.414,94.804c0,7.335,3.004,13.969,7.87,18.817
		c4.875,4.859,11.501,7.925,18.847,7.925c7.385,0,14.086-2.999,18.941-7.839c4.855-4.839,7.863-11.519,7.865-18.879h-0.001V59.129
		l-53.528-0.064L81.414,94.804L81.414,94.804L81.414,94.804z"/>
	<path fill="#FA0F0C" stroke="#000000" stroke-width="0.2" d="M82.415,94.853v0.02c0,7.013,2.904,13.4,7.562,18.036
		c4.668,4.645,11.096,7.534,18.128,7.534c7.069,0,13.484-2.867,18.132-7.495c4.647-4.627,7.527-11.014,7.528-18.052h-0.001V60.264
		l-51.319-0.008L82.415,94.853 M123.447,70.624l0.002,22.04l-0.019,2.331h0c0,0.613-0.037,1.313-0.109,1.908
		c-0.417,3.484-2.02,6.522-4.393,8.884c-2.779,2.766-6.614,4.482-10.84,4.482c-4.205,0-7.952-1.775-10.742-4.553
		c-2.862-2.849-4.522-6.756-4.522-10.795l-0.006-24.353L123.447,70.624L123.447,70.624L123.447,70.624z"/>
	<g>
		<g id="castle">
			<path fill="#F7F719" d="M85.737,69.298c0.061-2.489,1.827-3.078,1.84-3.087c0.013-0.008,1.908,0.635,1.901,3.11L85.737,69.298"/>
			<path fill="#F7F719" stroke="#000000" stroke-width="0.5" d="M84.214,66.259l-0.307,2.86l1.867,0.004
				c0.018-2.366,1.791-2.76,1.834-2.751c0.04-0.002,1.798,0.523,1.845,2.751h1.871l-0.338-2.882L84.214,66.259L84.214,66.259
				L84.214,66.259z"/>
			<path fill="#F7F719" stroke="#000000" stroke-width="0.5" d="M83.781,69.131h7.639c0.161,0,0.293,0.159,0.293,0.353
				c0,0.194-0.132,0.352-0.293,0.352h-7.639c-0.161,0-0.293-0.158-0.293-0.352C83.488,69.29,83.62,69.131,83.781,69.131z"/>
			<path fill="#F7F719" stroke="#000000" stroke-width="0.5" d="M86.558,69.117c0.008-1.493,1.02-1.916,1.025-1.915
				c0,0,1.056,0.436,1.064,1.915H86.558"/>
			<path fill="#F7F719" stroke="#000000" stroke-width="0.5" d="M83.943,65.069h7.323c0.154,0,0.281,0.144,0.281,0.318
				c0,0.175-0.126,0.318-0.281,0.318h-7.323c-0.154,0-0.281-0.142-0.281-0.318C83.662,65.213,83.789,65.069,83.943,65.069z"/>
			<path fill="#F7F719" stroke="#000000" stroke-width="0.5" d="M84.096,65.709h7.005c0.147,0,0.268,0.143,0.268,0.317
				c0,0.175-0.121,0.318-0.268,0.318h-7.005c-0.147,0-0.268-0.143-0.268-0.318C83.828,65.852,83.949,65.709,84.096,65.709z"/>
			<path fill="#F7F719" stroke="#000000" stroke-width="0.5" d="M86.359,60.935l0.553,0.001v0.393h0.404v-0.402l0.567,0.002v0.4
				h0.405v-0.402h0.567l-0.001,0.907c0,0.142-0.114,0.235-0.247,0.235h-1.989c-0.134,0-0.257-0.107-0.257-0.237L86.359,60.935
				L86.359,60.935L86.359,60.935z"/>
			<path fill="#F7F719" stroke="#000000" stroke-width="0.5" d="M88.442,62.148l0.125,2.908l-1.94-0.007l0.128-2.909L88.442,62.148"
				/>
			<path id="cp1" fill="#F7F719" stroke="#000000" stroke-width="0.5" d="M86.075,63.496l0.059,1.568l-1.86,0.001l0.052-1.568
				L86.075,63.496L86.075,63.496L86.075,63.496z"/>
			<g>
				<path id="cp1_1_" fill="#F7F719" stroke="#000000" stroke-width="0.5" d="M90.858,63.496l0.059,1.568l-1.86,0.001l0.052-1.568
					L90.858,63.496L90.858,63.496L90.858,63.496z"/>
			</g>
			<path id="cp2" fill="#F7F719" stroke="#000000" stroke-width="0.5" d="M83.984,62.36l0.541,0.001v0.393h0.396v-0.402l0.554,0.002
				v0.401h0.396v-0.402l0.555,0.001l-0.001,0.907c0,0.142-0.112,0.234-0.242,0.234h-1.946c-0.13,0-0.252-0.106-0.252-0.237
				L83.984,62.36L83.984,62.36L83.984,62.36z"/>
			<g>
				<path id="cp2_1_" fill="#F7F719" stroke="#000000" stroke-width="0.5" d="M88.766,62.36l0.541,0.001v0.393h0.396v-0.402
					l0.554,0.002v0.401h0.396v-0.402l0.555,0.001l-0.001,0.907c0,0.142-0.112,0.234-0.242,0.234h-1.946
					c-0.13,0-0.252-0.106-0.252-0.237L88.766,62.36L88.766,62.36L88.766,62.36z"/>
			</g>
			<path d="M87.41,63.068c-0.012-0.283,0.395-0.286,0.39,0v0.693h-0.39L87.41,63.068"/>
			<path id="cp3" d="M85.007,64.073c-0.001-0.273,0.377-0.279,0.373,0v0.535h-0.372L85.007,64.073"/>
			<g>
				<path id="cp3_1_" d="M89.804,64.073c-0.001-0.273,0.377-0.279,0.373,0v0.535h-0.372L89.804,64.073"/>
			</g>
		</g>
		<g>
			<g id="castle_1_">
				<path fill="#F7F719" d="M85.737,90.178c0.061-2.489,1.827-3.078,1.84-3.087c0.013-0.008,1.908,0.635,1.901,3.11L85.737,90.178"
					/>
				<path fill="#F7F719" stroke="#000000" stroke-width="0.5" d="M84.214,87.14L83.906,90l1.867,0.004
					c0.018-2.366,1.791-2.76,1.834-2.751c0.04-0.002,1.798,0.523,1.845,2.751h1.871l-0.338-2.882L84.214,87.14L84.214,87.14
					L84.214,87.14z"/>
				<path fill="#F7F719" stroke="#000000" stroke-width="0.5" d="M83.781,90.012h7.639c0.161,0,0.293,0.159,0.293,0.353
					c0,0.194-0.132,0.352-0.293,0.352h-7.639c-0.161,0-0.293-0.158-0.293-0.352C83.488,90.171,83.62,90.012,83.781,90.012z"/>
				<path fill="#F7F719" stroke="#000000" stroke-width="0.5" d="M86.558,89.998c0.008-1.493,1.02-1.916,1.025-1.915
					c0,0,1.056,0.436,1.064,1.915H86.558"/>
				<path fill="#F7F719" stroke="#000000" stroke-width="0.5" d="M83.943,85.95h7.323c0.154,0,0.281,0.144,0.281,0.318
					c0,0.175-0.126,0.318-0.281,0.318h-7.323c-0.154,0-0.281-0.142-0.281-0.318C83.662,86.093,83.789,85.95,83.943,85.95z"/>
				<path fill="#F7F719" stroke="#000000" stroke-width="0.5" d="M84.096,86.59h7.005c0.147,0,0.268,0.143,0.268,0.317
					c0,0.175-0.121,0.318-0.268,0.318h-7.005c-0.147,0-0.268-0.143-0.268-0.318C83.828,86.733,83.949,86.59,84.096,86.59z"/>
				<path fill="#F7F719" stroke="#000000" stroke-width="0.5" d="M86.359,81.816l0.553,0.001v0.393h0.404v-0.402l0.567,0.002v0.4
					h0.405v-0.402h0.567l-0.001,0.907c0,0.142-0.114,0.235-0.247,0.235h-1.989c-0.134,0-0.257-0.107-0.257-0.237L86.359,81.816
					L86.359,81.816L86.359,81.816z"/>
				<path fill="#F7F719" stroke="#000000" stroke-width="0.5" d="M88.442,83.029l0.125,2.908l-1.94-0.007l0.128-2.909L88.442,83.029
					"/>
				<path id="cp1_2_" fill="#F7F719" stroke="#000000" stroke-width="0.5" d="M86.075,84.377l0.059,1.568l-1.86,0.001l0.052-1.568
					L86.075,84.377L86.075,84.377L86.075,84.377z"/>
				<g>
					<path id="cp1_3_" fill="#F7F719" stroke="#000000" stroke-width="0.5" d="M90.858,84.377l0.059,1.568l-1.86,0.001l0.052-1.568
						L90.858,84.377L90.858,84.377L90.858,84.377z"/>
				</g>
				<path id="cp2_2_" fill="#F7F719" stroke="#000000" stroke-width="0.5" d="M83.984,83.241l0.541,0.001v0.393h0.396v-0.402
					l0.554,0.002v0.401h0.396v-0.402l0.555,0.001l-0.001,0.907c0,0.142-0.112,0.234-0.242,0.234h-1.946
					c-0.13,0-0.252-0.106-0.252-0.237L83.984,83.241L83.984,83.241L83.984,83.241z"/>
				<g>
					<path id="cp2_3_" fill="#F7F719" stroke="#000000" stroke-width="0.5" d="M88.766,83.241l0.541,0.001v0.393h0.396v-0.402
						l0.554,0.002v0.401h0.396v-0.402l0.555,0.001l-0.001,0.907c0,0.142-0.112,0.234-0.242,0.234h-1.946
						c-0.13,0-0.252-0.106-0.252-0.237L88.766,83.241L88.766,83.241L88.766,83.241z"/>
				</g>
				<path d="M87.41,83.948c-0.012-0.283,0.395-0.286,0.39,0v0.693h-0.39L87.41,83.948"/>
				<path id="cp3_2_" d="M85.007,84.954c-0.001-0.273,0.377-0.279,0.373,0v0.535h-0.372L85.007,84.954"/>
				<g>
					<path id="cp3_3_" d="M89.804,84.954c-0.001-0.273,0.377-0.279,0.373,0v0.535h-0.372L89.804,84.954"/>
				</g>
			</g>
			<g id="castle3">
				<g id="castle_2_">
					<path fill="#F7F719" d="M93.879,111.913c-1.723-1.797-0.897-3.465-0.894-3.48c0.003-0.015,1.794-0.906,3.546,0.842
						L93.879,111.913"/>
					<path fill="#F7F719" stroke="#000000" stroke-width="0.5" d="M90.65,110.853l1.813,2.233l1.318-1.322
						c-1.667-1.68-0.696-3.216-0.66-3.24c0.027-0.03,1.638-0.907,3.252,0.629l1.319-1.328l-2.283-1.791L90.65,110.853L90.65,110.853
						L90.65,110.853z"/>
					<path fill="#F7F719" stroke="#000000" stroke-width="0.5" d="M92.382,113.184l5.383-5.421c0.113-0.114,0.319-0.096,0.457,0.041
						c0.138,0.137,0.157,0.342,0.044,0.456l-5.383,5.421c-0.113,0.114-0.318,0.096-0.456-0.041
						C92.289,113.504,92.269,113.298,92.382,113.184z"/>
					<path fill="#F7F719" stroke="#000000" stroke-width="0.5" d="M94.329,111.204c-1.054-1.058-0.641-2.074-0.637-2.077
						c0,0,1.053-0.442,2.109,0.594L94.329,111.204"/>
					<path fill="#F7F719" stroke="#000000" stroke-width="0.5" d="M89.614,110.207l5.16-5.197c0.109-0.109,0.3-0.098,0.423,0.025
						c0.124,0.123,0.136,0.314,0.028,0.423l-5.16,5.197c-0.109,0.109-0.299,0.099-0.423-0.025
						C89.519,110.507,89.506,110.316,89.614,110.207z"/>
					<path fill="#F7F719" stroke="#000000" stroke-width="0.5" d="M90.177,110.549l4.935-4.97c0.104-0.105,0.29-0.09,0.414,0.033
						c0.124,0.123,0.14,0.31,0.036,0.414l-4.935,4.97c-0.104,0.105-0.29,0.09-0.414-0.033
						C90.089,110.84,90.073,110.654,90.177,110.549z"/>
					<path fill="#F7F719" stroke="#000000" stroke-width="0.5" d="M88.384,105.58l0.39-0.392l0.279,0.277l0.284-0.286l-0.285-0.283
						l0.4-0.401l0.284,0.282l0.285-0.287l-0.285-0.283l0.399-0.402l0.643,0.64c0.101,0.1,0.086,0.247-0.008,0.341l-1.401,1.411
						c-0.094,0.095-0.257,0.107-0.35,0.015L88.384,105.58L88.384,105.58L88.384,105.58z"/>
					<path fill="#F7F719" stroke="#000000" stroke-width="0.5" d="M90.712,104.956l2.152,1.961l-1.372,1.371l-1.974-2.141
						L90.712,104.956"/>
					<path id="cp1_4_" fill="#F7F719" stroke="#000000" stroke-width="0.5" d="M90,107.585l1.154,1.063l-1.31,1.32l-1.076-1.142
						L90,107.585L90,107.585L90,107.585z"/>
					<g>
						<path id="cp1_5_" fill="#F7F719" stroke="#000000" stroke-width="0.5" d="M93.37,104.192l1.154,1.063l-1.31,1.32l-1.076-1.142
							L93.37,104.192L93.37,104.192L93.37,104.192z"/>
					</g>
					<path id="cp2_4_" fill="#F7F719" stroke="#000000" stroke-width="0.5" d="M87.721,108.269l0.382-0.383l0.279,0.277l0.279-0.281
						l-0.286-0.284l0.392-0.392l0.284,0.282l0.279-0.281l-0.286-0.284l0.391-0.393l0.643,0.64c0.1,0.1,0.087,0.244-0.004,0.336
						l-1.371,1.381c-0.092,0.093-0.253,0.104-0.346,0.012L87.721,108.269L87.721,108.269L87.721,108.269z"/>
					<g>
						<path id="cp2_5_" fill="#F7F719" stroke="#000000" stroke-width="0.5" d="M91.09,104.875l0.382-0.383l0.279,0.277l0.279-0.281
							l-0.286-0.284l0.392-0.392l0.284,0.282l0.279-0.281l-0.286-0.284l0.391-0.393l0.643,0.64c0.1,0.1,0.087,0.244-0.004,0.336
							l-1.371,1.381c-0.092,0.093-0.253,0.104-0.346,0.012L91.09,104.875L91.09,104.875L91.09,104.875z"/>
					</g>
					<path d="M90.637,106.337c-0.209-0.191,0.076-0.482,0.275-0.277l0.491,0.488l-0.275,0.277L90.637,106.337"/>
					<path id="cp3_4_" d="M89.657,108.75c-0.195-0.191,0.068-0.464,0.262-0.264l0.38,0.377l-0.262,0.264L89.657,108.75"/>
					<g transform="matrix(0.70460892,-0.70959585,0.70959585,0.70460892,-35.341459,275.10898)">
						<path id="cp3_5_" d="M93.037,105.346c-0.195-0.191,0.068-0.464,0.262-0.264l0.38,0.377l-0.262,0.264L93.037,105.346"/>
					</g>
				</g>
			</g>
			<g>
				<g id="castle_3_">
					<path fill="#F7F719" d="M106.345,69.298c0.061-2.489,1.827-3.078,1.84-3.087c0.013-0.008,1.908,0.635,1.901,3.11
						L106.345,69.298"/>
					<path fill="#F7F719" stroke="#000000" stroke-width="0.5" d="M104.821,66.259l-0.307,2.86l1.867,0.004
						c0.018-2.366,1.791-2.76,1.834-2.751c0.04-0.002,1.798,0.523,1.845,2.751h1.871l-0.338-2.882L104.821,66.259L104.821,66.259
						L104.821,66.259z"/>
					<path fill="#F7F719" stroke="#000000" stroke-width="0.5" d="M104.389,69.131h7.639c0.161,0,0.293,0.159,0.293,0.353
						c0,0.194-0.132,0.352-0.293,0.352h-7.639c-0.161,0-0.293-0.158-0.293-0.352C104.096,69.29,104.227,69.131,104.389,69.131z"/>
					<path fill="#F7F719" stroke="#000000" stroke-width="0.5" d="M107.165,69.117c0.008-1.493,1.02-1.916,1.025-1.915
						c0,0,1.056,0.436,1.064,1.915H107.165"/>
					<path fill="#F7F719" stroke="#000000" stroke-width="0.5" d="M104.551,65.069h7.323c0.154,0,0.281,0.144,0.281,0.318
						c0,0.175-0.126,0.318-0.281,0.318h-7.323c-0.154,0-0.281-0.142-0.281-0.318C104.27,65.213,104.397,65.069,104.551,65.069z"/>
					<path fill="#F7F719" stroke="#000000" stroke-width="0.5" d="M104.704,65.709h7.005c0.147,0,0.268,0.143,0.268,0.317
						c0,0.175-0.121,0.318-0.268,0.318h-7.005c-0.147,0-0.268-0.143-0.268-0.318C104.436,65.852,104.557,65.709,104.704,65.709z"/>
					<path fill="#F7F719" stroke="#000000" stroke-width="0.5" d="M106.967,60.935l0.553,0.001v0.393h0.404v-0.402l0.567,0.002v0.4
						h0.405v-0.402h0.567l-0.001,0.907c0,0.142-0.114,0.235-0.247,0.235h-1.989c-0.134,0-0.257-0.107-0.257-0.237L106.967,60.935
						L106.967,60.935L106.967,60.935z"/>
					<path fill="#F7F719" stroke="#000000" stroke-width="0.5" d="M109.05,62.148l0.125,2.908l-1.94-0.007l0.128-2.909
						L109.05,62.148"/>
					<path id="cp1_6_" fill="#F7F719" stroke="#000000" stroke-width="0.5" d="M106.683,63.496l0.059,1.568l-1.86,0.001l0.052-1.568
						L106.683,63.496L106.683,63.496L106.683,63.496z"/>
					<g>
						<path id="cp1_7_" fill="#F7F719" stroke="#000000" stroke-width="0.5" d="M111.466,63.496l0.059,1.568l-1.86,0.001
							l0.052-1.568L111.466,63.496L111.466,63.496L111.466,63.496z"/>
					</g>
					<path id="cp2_6_" fill="#F7F719" stroke="#000000" stroke-width="0.5" d="M104.591,62.36l0.541,0.001v0.393h0.396v-0.402
						l0.554,0.002v0.401h0.396v-0.402l0.555,0.001l-0.001,0.907c0,0.142-0.112,0.234-0.242,0.234h-1.946
						c-0.13,0-0.252-0.106-0.252-0.237L104.591,62.36L104.591,62.36L104.591,62.36z"/>
					<g>
						<path id="cp2_7_" fill="#F7F719" stroke="#000000" stroke-width="0.5" d="M109.374,62.36l0.541,0.001v0.393h0.396v-0.402
							l0.554,0.002v0.401h0.396v-0.402l0.555,0.001l-0.001,0.907c0,0.142-0.112,0.234-0.242,0.234h-1.946
							c-0.13,0-0.252-0.106-0.252-0.237L109.374,62.36L109.374,62.36L109.374,62.36z"/>
					</g>
					<path d="M108.017,63.068c-0.012-0.283,0.395-0.286,0.39,0v0.693h-0.39L108.017,63.068"/>
					<path id="cp3_6_" d="M105.615,64.073c-0.001-0.273,0.377-0.279,0.373,0v0.535h-0.372L105.615,64.073"/>
					<g>
						<path id="cp3_7_" d="M110.412,64.073c-0.001-0.273,0.377-0.279,0.373,0v0.535h-0.372L110.412,64.073"/>
					</g>
				</g>
				<g>
					<g>
						<g id="castle_4_">
							<path fill="#F7F719" d="M130.552,69.298c-0.061-2.489-1.827-3.078-1.84-3.087c-0.013-0.008-1.908,0.635-1.901,3.11
								L130.552,69.298"/>
							<path fill="#F7F719" stroke="#000000" stroke-width="0.5" d="M132.076,66.259l0.307,2.86l-1.867,0.004
								c-0.018-2.366-1.791-2.76-1.834-2.751c-0.04-0.002-1.798,0.523-1.845,2.751h-1.871l0.338-2.882L132.076,66.259
								L132.076,66.259L132.076,66.259z"/>
							<path fill="#F7F719" stroke="#000000" stroke-width="0.5" d="M132.508,69.131h-7.639c-0.161,0-0.293,0.159-0.293,0.353
								c0,0.194,0.132,0.352,0.293,0.352h7.639c0.161,0,0.293-0.158,0.293-0.352C132.801,69.29,132.669,69.131,132.508,69.131z"/>
							<path fill="#F7F719" stroke="#000000" stroke-width="0.5" d="M129.732,69.117c-0.008-1.493-1.02-1.916-1.025-1.915
								c0,0-1.056,0.436-1.064,1.915H129.732"/>
							<path fill="#F7F719" stroke="#000000" stroke-width="0.5" d="M132.346,65.069h-7.323c-0.154,0-0.281,0.144-0.281,0.318
								c0,0.175,0.126,0.318,0.281,0.318h7.323c0.154,0,0.281-0.142,0.281-0.318C132.627,65.213,132.5,65.069,132.346,65.069z"/>
							<path fill="#F7F719" stroke="#000000" stroke-width="0.5" d="M132.193,65.709h-7.004c-0.147,0-0.268,0.143-0.268,0.317
								c0,0.175,0.121,0.318,0.268,0.318h7.004c0.148,0,0.268-0.143,0.268-0.318C132.461,65.852,132.34,65.709,132.193,65.709z"/>
							<path fill="#F7F719" stroke="#000000" stroke-width="0.5" d="M129.93,60.935l-0.553,0.001v0.393h-0.404v-0.402l-0.567,0.002
								v0.4h-0.405v-0.402h-0.567l0.001,0.907c0,0.142,0.114,0.235,0.247,0.235h1.989c0.134,0,0.257-0.107,0.257-0.237
								L129.93,60.935L129.93,60.935L129.93,60.935z"/>
							<path fill="#F7F719" stroke="#000000" stroke-width="0.5" d="M127.847,62.148l-0.125,2.908l1.94-0.007l-0.128-2.909
								L127.847,62.148"/>
							<path id="cp1_8_" fill="#F7F719" stroke="#000000" stroke-width="0.5" d="M130.214,63.496l-0.059,1.568l1.86,0.001
								l-0.052-1.568L130.214,63.496L130.214,63.496L130.214,63.496z"/>
							<g>
								<path id="cp1_9_" fill="#F7F719" stroke="#000000" stroke-width="0.5" d="M125.431,63.496l-0.059,1.568l1.86,0.001
									l-0.052-1.568L125.431,63.496L125.431,63.496L125.431,63.496z"/>
							</g>
							<path id="cp2_8_" fill="#F7F719" stroke="#000000" stroke-width="0.5" d="M132.306,62.36l-0.541,0.001v0.393h-0.396v-0.402
								l-0.554,0.002v0.401h-0.396v-0.402l-0.555,0.001l0.001,0.907c0,0.142,0.112,0.234,0.242,0.234h1.946
								c0.13,0,0.252-0.106,0.252-0.237L132.306,62.36L132.306,62.36L132.306,62.36z"/>
							<g>
								<path id="cp2_9_" fill="#F7F719" stroke="#000000" stroke-width="0.5" d="M127.523,62.36l-0.541,0.001v0.393h-0.396v-0.402
									l-0.554,0.002v0.401h-0.396v-0.402l-0.555,0.001l0.001,0.907c0,0.142,0.112,0.234,0.242,0.234h1.946
									c0.13,0,0.252-0.106,0.252-0.237L127.523,62.36L127.523,62.36L127.523,62.36z"/>
							</g>
							<path d="M128.88,63.068c0.012-0.283-0.395-0.286-0.39,0v0.693h0.39L128.88,63.068"/>
							<path id="cp3_8_" d="M131.282,64.073c0.001-0.273-0.377-0.279-0.373,0v0.535h0.372L131.282,64.073"/>
							<g>
								<path id="cp3_9_" d="M126.485,64.073c0.001-0.273-0.377-0.279-0.373,0v0.535h0.372L126.485,64.073"/>
							</g>
						</g>
						<g>
							<g id="castle_5_">
								<path fill="#F7F719" d="M130.552,90.178c-0.061-2.489-1.827-3.078-1.84-3.087c-0.013-0.008-1.908,0.635-1.901,3.11
									L130.552,90.178"/>
								<path fill="#F7F719" stroke="#000000" stroke-width="0.5" d="M132.076,87.14l0.307,2.86l-1.867,0.004
									c-0.018-2.366-1.791-2.76-1.834-2.751c-0.04-0.002-1.798,0.523-1.845,2.751h-1.871l0.338-2.882L132.076,87.14L132.076,87.14
									L132.076,87.14z"/>
								<path fill="#F7F719" stroke="#000000" stroke-width="0.5" d="M132.508,90.012h-7.639c-0.161,0-0.293,0.159-0.293,0.353
									c0,0.194,0.132,0.352,0.293,0.352h7.639c0.161,0,0.293-0.158,0.293-0.352C132.801,90.171,132.669,90.012,132.508,90.012z"/>
								<path fill="#F7F719" stroke="#000000" stroke-width="0.5" d="M129.732,89.998c-0.008-1.493-1.02-1.916-1.025-1.915
									c0,0-1.056,0.436-1.064,1.915H129.732"/>
								<path fill="#F7F719" stroke="#000000" stroke-width="0.5" d="M132.346,85.95h-7.323c-0.154,0-0.281,0.144-0.281,0.318
									c0,0.175,0.126,0.318,0.281,0.318h7.323c0.154,0,0.281-0.142,0.281-0.318C132.627,86.093,132.5,85.95,132.346,85.95z"/>
								<path fill="#F7F719" stroke="#000000" stroke-width="0.5" d="M132.193,86.59h-7.004c-0.147,0-0.268,0.143-0.268,0.317
									c0,0.175,0.121,0.318,0.268,0.318h7.004c0.148,0,0.268-0.143,0.268-0.318C132.461,86.733,132.34,86.59,132.193,86.59z"/>
								<path fill="#F7F719" stroke="#000000" stroke-width="0.5" d="M129.93,81.816l-0.553,0.001v0.393h-0.404v-0.402l-0.567,0.002
									v0.4h-0.405v-0.402h-0.567l0.001,0.907c0,0.142,0.114,0.235,0.247,0.235h1.989c0.134,0,0.257-0.107,0.257-0.237
									L129.93,81.816L129.93,81.816L129.93,81.816z"/>
								<path fill="#F7F719" stroke="#000000" stroke-width="0.5" d="M127.847,83.029l-0.125,2.908l1.94-0.007l-0.128-2.909
									L127.847,83.029"/>
								<path id="cp1_10_" fill="#F7F719" stroke="#000000" stroke-width="0.5" d="M130.214,84.377l-0.059,1.568l1.86,0.001
									l-0.052-1.568L130.214,84.377L130.214,84.377L130.214,84.377z"/>
								<g>
									<path id="cp1_11_" fill="#F7F719" stroke="#000000" stroke-width="0.5" d="M125.431,84.377l-0.059,1.568l1.86,0.001
										l-0.052-1.568L125.431,84.377L125.431,84.377L125.431,84.377z"/>
								</g>
								<path id="cp2_10_" fill="#F7F719" stroke="#000000" stroke-width="0.5" d="M132.306,83.241l-0.541,0.001v0.393h-0.396
									v-0.402l-0.554,0.002v0.401h-0.396v-0.402l-0.555,0.001l0.001,0.907c0,0.142,0.112,0.234,0.242,0.234h1.946
									c0.13,0,0.252-0.106,0.252-0.237L132.306,83.241L132.306,83.241L132.306,83.241z"/>
								<g>
									<path id="cp2_11_" fill="#F7F719" stroke="#000000" stroke-width="0.5" d="M127.523,83.241l-0.541,0.001v0.393h-0.396
										v-0.402l-0.554,0.002v0.401h-0.396v-0.402l-0.555,0.001l0.001,0.907c0,0.142,0.112,0.234,0.242,0.234h1.946
										c0.13,0,0.252-0.106,0.252-0.237L127.523,83.241L127.523,83.241L127.523,83.241z"/>
								</g>
								<path d="M128.88,83.948c0.012-0.283-0.395-0.286-0.39,0v0.693h0.39L128.88,83.948"/>
								<path id="cp3_10_" d="M131.282,84.954c0.001-0.273-0.377-0.279-0.373,0v0.535h0.372L131.282,84.954"/>
								<g>
									<path id="cp3_11_" d="M126.485,84.954c0.001-0.273-0.377-0.279-0.373,0v0.535h0.372L126.485,84.954"/>
								</g>
							</g>
							<g id="castle3_1_">
								<g id="castle_6_">
									<path fill="#F7F719" d="M122.41,111.913c1.723-1.797,0.897-3.465,0.894-3.48c-0.003-0.015-1.794-0.906-3.546,0.842
										L122.41,111.913"/>
									<path fill="#F7F719" stroke="#000000" stroke-width="0.5" d="M125.64,110.853l-1.813,2.233l-1.318-1.322
										c1.667-1.68,0.696-3.216,0.66-3.24c-0.027-0.03-1.638-0.907-3.252,0.629l-1.319-1.328l2.283-1.791L125.64,110.853
										L125.64,110.853L125.64,110.853z"/>
									<path fill="#F7F719" stroke="#000000" stroke-width="0.5" d="M123.907,113.184l-5.383-5.421
										c-0.113-0.114-0.319-0.096-0.457,0.041c-0.138,0.137-0.157,0.342-0.044,0.456l5.383,5.421
										c0.113,0.114,0.318,0.096,0.456-0.041C124,113.504,124.02,113.298,123.907,113.184z"/>
									<path fill="#F7F719" stroke="#000000" stroke-width="0.5" d="M121.96,111.204c1.054-1.058,0.641-2.074,0.637-2.077
										c0,0-1.053-0.442-2.109,0.594L121.96,111.204"/>
									<path fill="#F7F719" stroke="#000000" stroke-width="0.5" d="M126.675,110.207l-5.16-5.197
										c-0.109-0.109-0.3-0.098-0.423,0.025c-0.124,0.123-0.136,0.314-0.028,0.423l5.16,5.197
										c0.109,0.109,0.299,0.099,0.423-0.025C126.771,110.507,126.784,110.316,126.675,110.207z"/>
									<path fill="#F7F719" stroke="#000000" stroke-width="0.5" d="M126.113,110.549l-4.935-4.97
										c-0.104-0.105-0.29-0.09-0.414,0.033c-0.124,0.123-0.14,0.31-0.036,0.414l4.935,4.97c0.104,0.105,0.29,0.09,0.414-0.033
										C126.2,110.84,126.217,110.654,126.113,110.549z"/>
									<path fill="#F7F719" stroke="#000000" stroke-width="0.5" d="M127.906,105.58l-0.39-0.392l-0.279,0.277l-0.284-0.286
										l0.285-0.283l-0.4-0.401l-0.284,0.282l-0.285-0.287l0.285-0.283l-0.399-0.402l-0.643,0.64
										c-0.101,0.1-0.086,0.247,0.008,0.341l1.401,1.411c0.094,0.095,0.257,0.107,0.35,0.015L127.906,105.58L127.906,105.58
										L127.906,105.58z"/>
									<path fill="#F7F719" stroke="#000000" stroke-width="0.5" d="M125.578,104.956l-2.152,1.961l1.372,1.371l1.974-2.141
										L125.578,104.956"/>
									<path id="cp1_12_" fill="#F7F719" stroke="#000000" stroke-width="0.5" d="M126.289,107.585l-1.154,1.063l1.31,1.32
										l1.076-1.142L126.289,107.585L126.289,107.585L126.289,107.585z"/>
									<g>
										<path id="cp1_13_" fill="#F7F719" stroke="#000000" stroke-width="0.5" d="M122.919,104.192l-1.154,1.063l1.31,1.32
											l1.076-1.142L122.919,104.192L122.919,104.192L122.919,104.192z"/>
									</g>
									<path id="cp2_12_" fill="#F7F719" stroke="#000000" stroke-width="0.5" d="M128.569,108.269l-0.382-0.383l-0.279,0.277
										l-0.279-0.281l0.286-0.284l-0.392-0.392l-0.284,0.282l-0.279-0.281l0.286-0.284l-0.391-0.393l-0.643,0.64
										c-0.1,0.1-0.087,0.244,0.004,0.336l1.371,1.381c0.092,0.093,0.253,0.104,0.346,0.012L128.569,108.269L128.569,108.269
										L128.569,108.269z"/>
									<g>
										<path id="cp2_13_" fill="#F7F719" stroke="#000000" stroke-width="0.5" d="M125.199,104.875l-0.382-0.383l-0.279,0.277
											l-0.279-0.281l0.286-0.284l-0.392-0.392l-0.284,0.282l-0.279-0.281l0.286-0.284l-0.391-0.393l-0.643,0.64
											c-0.1,0.1-0.087,0.244,0.004,0.336l1.371,1.381c0.092,0.093,0.253,0.104,0.346,0.012L125.199,104.875L125.199,104.875
											L125.199,104.875z"/>
									</g>
									<path d="M125.652,106.337c0.209-0.191-0.076-0.482-0.275-0.277l-0.491,0.488l0.275,0.277L125.652,106.337"/>
									<path id="cp3_12_" d="M126.632,108.75c0.195-0.191-0.068-0.464-0.262-0.264l-0.38,0.377l0.262,0.264L126.632,108.75"/>
									<g transform="matrix(-1,0,0,1,479.79195,0)">
										<path id="cp3_13_" d="M123.252,105.346c0.195-0.191-0.068-0.464-0.262-0.264l-0.38,0.377l0.262,0.264L123.252,105.346"/>
									</g>
								</g>
							</g>
							<g id="quina">
								<path fill="#19338F" d="M104.872,90.925v0.002c0,0.997,0.383,1.906,0.997,2.565c0.615,0.661,1.463,1.072,2.39,1.072
									c0.932,0,1.778-0.408,2.391-1.066c0.612-0.658,0.993-1.565,0.993-2.566v-4.854l-6.758-0.006L104.872,90.925"/>
								<circle fill="#FFFFFF" cx="106.422" cy="87.918" r="0.67"/>
								<circle fill="#FFFFFF" cx="110.171" cy="87.921" r="0.67"/>
								<circle fill="#FFFFFF" cx="108.293" cy="89.721" r="0.67"/>
								<circle fill="#FFFFFF" cx="106.422" cy="91.606" r="0.67"/>
								<circle fill="#FFFFFF" cx="110.167" cy="91.601" r="0.67"/>
							</g>
							<g>
								<g id="quina_1_">
									<path fill="#19338F" d="M104.872,79.197v0.002c0,0.997,0.383,1.906,0.997,2.565c0.615,0.661,1.463,1.072,2.39,1.072
										c0.932,0,1.778-0.408,2.391-1.066c0.612-0.658,0.993-1.565,0.993-2.566v-4.854l-6.758-0.006L104.872,79.197"/>
									<circle fill="#FFFFFF" cx="106.422" cy="76.19" r="0.67"/>
									<circle fill="#FFFFFF" cx="110.171" cy="76.193" r="0.67"/>
									<circle fill="#FFFFFF" cx="108.293" cy="77.993" r="0.67"/>
									<circle fill="#FFFFFF" cx="106.422" cy="79.878" r="0.67"/>
									<circle fill="#FFFFFF" cx="110.167" cy="79.873" r="0.67"/>
								</g>
							</g>
							<g>
								<g id="quina_2_">
									<path fill="#19338F" d="M95.496,90.925v0.002c0,0.997,0.383,1.906,0.997,2.565c0.615,0.661,1.463,1.072,2.39,1.072
										c0.932,0,1.778-0.408,2.391-1.066c0.612-0.658,0.993-1.565,0.993-2.566v-4.854l-6.758-0.006L95.496,90.925"/>
									<circle fill="#FFFFFF" cx="97.046" cy="87.918" r="0.67"/>
									<circle fill="#FFFFFF" cx="100.795" cy="87.921" r="0.67"/>
									<circle fill="#FFFFFF" cx="98.917" cy="89.721" r="0.67"/>
									<circle fill="#FFFFFF" cx="97.046" cy="91.606" r="0.67"/>
									<circle fill="#FFFFFF" cx="100.791" cy="91.601" r="0.67"/>
								</g>
							</g>
							<g>
								<g id="quina_3_">
									<path fill="#19338F" d="M114.224,90.925v0.002c0,0.997,0.383,1.906,0.997,2.565c0.615,0.661,1.463,1.072,2.39,1.072
										c0.932,0,1.778-0.408,2.391-1.066c0.612-0.658,0.993-1.565,0.993-2.566v-4.854l-6.758-0.006L114.224,90.925"/>
									<circle fill="#FFFFFF" cx="115.773" cy="87.918" r="0.67"/>
									<circle fill="#FFFFFF" cx="119.523" cy="87.921" r="0.67"/>
									<circle fill="#FFFFFF" cx="117.645" cy="89.721" r="0.67"/>
									<circle fill="#FFFFFF" cx="115.773" cy="91.606" r="0.67"/>
									<circle fill="#FFFFFF" cx="119.519" cy="91.601" r="0.67"/>
								</g>
							</g>
							<g>
								<g id="quina_4_">
									<path fill="#19338F" d="M104.872,102.548v0.002c0,0.997,0.383,1.906,0.997,2.565c0.615,0.661,1.463,1.072,2.39,1.072
										c0.932,0,1.778-0.408,2.391-1.066c0.612-0.658,0.993-1.565,0.993-2.566V97.7l-6.758-0.006L104.872,102.548"/>
									<circle fill="#FFFFFF" cx="106.422" cy="99.541" r="0.67"/>
									<circle fill="#FFFFFF" cx="110.171" cy="99.544" r="0.67"/>
									<circle fill="#FFFFFF" cx="108.293" cy="101.344" r="0.67"/>
									<circle fill="#FFFFFF" cx="106.422" cy="103.229" r="0.67"/>
									<circle fill="#FFFFFF" cx="110.167" cy="103.224" r="0.67"/>
								</g>
							</g>
						</g>
					</g>
				</g>
			</g>
		</g>
	</g>
</g>
</svg>
